ShinkaiMono.ufo
<glyph name="exclam" format="2">
	<advance width="500"/>
	<unicode hex="0021"/>
	<outline>
		<contour>
			<point x="204" y="701" type="line"/>
			<point x="220" y="213" type="line"/>
			<point x="280" y="212" type="line"/>
			<point x="296" y="700" type="line"/>
		</contour>
		<contour>
			<point x="206" y="91" type="line"/>
			<point x="206" y="0" type="line"/>
			<point x="294" y="0" type="line"/>
			<point x="294" y="91" type="line"/>
		</contour>
	</outline>
</glyph>
<glyph name="dollar" format="2">
	<advance width="500"/>
	<unicode hex="0024"/>
	<outline>
		<contour>
			<point x="356" y="420" type="curve"/>
			<point x="428" y="439" type="line"/>
			<point x="408.917" y="524.006"/>
			<point x="360.49" y="569.135"/>
			<point x="285.331" y="580.261" type="curve"/>
			<point x="285" y="699" type="line"/>
			<point x="215" y="699" type="line"/>
			<point x="215.33" y="580.661" type="line"/>
			<point x="76.741" y="559.437"/>
			<point x="-4.46" y="400.313"/>
			<point x="155" y="328" type="curve"/>
			<point x="216.092" y="307.103" type="line"/>
			<point x="216.523" y="152.354" type="line"/>
			<point x="175.487" y="163.143"/>
			<point x="155.246" y="190.515"/>
			<point x="144" y="237" type="curve"/>
			<point x="72" y="218" type="line"/>
			<point x="91.257" y="132.218"/>
			<point x="140.396" y="87.044"/>
			<point x="216.734" y="76.443" type="curve"/>
			<point x="217" y="-19" type="line"/>
			<point x="287" y="-19" type="line"/>
			<point x="286.734" y="76.666" type="line"/>
			<point x="424.061" y="99.143"/>
			<point x="503.667" y="257.046"/>
			<point x="345" y="329" type="curve"/>
			<point x="285.974" y="349.203" type="line"/>
			<point x="285.543" y="504.126" type="line"/>
			<point x="325.532" y="492.995"/>
			<point x="345.668" y="465.757"/>
		</contour>
		<contour>
			<point x="184" y="387" type="line" smooth="yes"/>
			<point x="114.389" y="417.629"/>
			<point x="136.093" y="497.362"/>
			<point x="215.53" y="508.661" type="curve"/>
			<point x="215.906" y="373.922" type="line"/>
		</contour>
		<contour>
			<point x="286.161" y="282.277" type="line"/>
			<point x="316" y="270" type="line" smooth="yes"/>
			<point x="385.064" y="239.612"/>
			<point x="365.091" y="160.888"/>
			<point x="286.533" y="148.618" type="curve"/>
		</contour>
	</outline>
</glyph>
<glyph name="percent" format="2">
	<advance width="500"/>
	<unicode hex="0025"/>
	<outline>
		<contour>
			<point x="345" y="700" type="line"/>
			<point x="89" y="0" type="line"/>
			<point x="166" y="0" type="line"/>
			<point x="422" y="700" type="line"/>
		</contour>
		<contour>
			<point x="345" y="170" type="line"/>
			<point x="345" y="0" type="line"/>
			<point x="422" y="0" type="line"/>
			<point x="422" y="170" type="line"/>
		</contour>
		<contour>
			<point x="89" y="700" type="line"/>
			<point x="89" y="530" type="line"/>
			<point x="166" y="530" type="line"/>
			<point x="166" y="700" type="line"/>
		</contour>
	</outline>
</glyph>
<glyph name="ampersand" format="2">
	<advance width="500"/>
	<unicode hex="0026"/>
	<outline>
		<contour>
			<point x="368" y="0" type="curve"/>
			<point x="452" y="0" type="line"/>
			<point x="319" y="250"/>
			<point x="209" y="466"/>
			<point x="187" y="531" type="curve" smooth="yes"/>
			<point x="166" y="592"/>
			<point x="214" y="633"/>
			<point x="270" y="631" type="curve" smooth="yes"/>
			<point x="332" y="629"/>
			<point x="351" y="578"/>
			<point x="348" y="498" type="curve"/>
			<point x="414" y="500" type="line"/>
			<point x="422" y="613"/>
			<point x="373" y="695"/>
			<point x="269" y="700" type="curve" smooth="yes"/>
			<point x="170" y="704"/>
			<point x="85" y="618"/>
			<point x="109" y="532" type="curve" smooth="yes"/>
			<point x="137" y="431"/>
			<point x="270" y="193"/>
		</contour>
		<contour>
			<point x="216" y="323" type="curve"/>
			<point x="179" y="407" type="line"/>
			<point x="120" y="338"/>
			<point x="80" y="224"/>
			<point x="75" y="174" type="curve" smooth="yes"/>
			<point x="69" y="72"/>
			<point x="120" y="5"/>
			<point x="240" y="0" type="curve" smooth="yes"/>
			<point x="366" y="-5"/>
			<point x="420" y="170"/>
			<point x="432" y="274" type="curve"/>
			<point x="361" y="274" type="line"/>
			<point x="359" y="204"/>
			<point x="319" y="74"/>
			<point x="243" y="74" type="curve" smooth="yes"/>
			<point x="174" y="74"/>
			<point x="140" y="102"/>
			<point x="149" y="180" type="curve" smooth="yes"/>
			<point x="152" y="204"/>
			<point x="181" y="278"/>
		</contour>
	</outline>
</glyph>
<glyph name="quotesingle" format="2">
	<advance width="500"/>
	<unicode hex="0027"/>
	<outline>
		<contour>
			<point x="206" y="700" type="line"/>
			<point x="218" y="463" type="line"/>
			<point x="282" y="463" type="line"/>
			<point x="294" y="700" type="line"/>
		</contour>
	</outline>
</glyph>
<glyph name="asterisk" format="2">
	<advance width="500"/>
	<unicode hex="002A"/>
	<outline>
		<contour>
			<point x="234" y="331" type="curve"/>
			<point x="263" y="331" type="line"/>
			<point x="265" y="360"/>
			<point x="278" y="397"/>
			<point x="279" y="426" type="curve" smooth="yes"/>
			<point x="284" y="532" type="line"/>
			<point x="212" y="532" type="line"/>
			<point x="217" y="426" type="line" smooth="yes"/>
			<point x="218" y="397"/>
			<point x="232" y="360"/>
		</contour>
		<contour>
			<point x="245" y="345" type="curve"/>
			<point x="253" y="317" type="line"/>
			<point x="282" y="324"/>
			<point x="321" y="323"/>
			<point x="349" y="331" type="curve" smooth="yes"/>
			<point x="451" y="359" type="line"/>
			<point x="429" y="428" type="line"/>
			<point x="330" y="390" type="line"/>
			<point x="302" y="379"/>
			<point x="271" y="356"/>
		</contour>
		<contour>
			<point x="259" y="338" type="curve"/>
			<point x="236" y="321" type="line"/>
			<point x="251" y="297"/>
			<point x="263" y="260"/>
			<point x="279" y="235" type="curve" smooth="yes"/>
			<point x="337" y="146" type="line"/>
			<point x="395" y="189" type="line"/>
			<point x="329" y="271" type="line" smooth="yes"/>
			<point x="311" y="294"/>
			<point x="278" y="316"/>
		</contour>
		<contour>
			<point x="259" y="323" type="curve"/>
			<point x="236" y="340" type="line"/>
			<point x="217" y="318"/>
			<point x="185" y="296"/>
			<point x="167" y="273" type="curve" smooth="yes"/>
			<point x="100" y="190" type="line"/>
			<point x="159" y="148" type="line"/>
			<point x="217" y="236" type="line" smooth="yes"/>
			<point x="233" y="260"/>
			<point x="244" y="299"/>
		</contour>
		<contour>
			<point x="244" y="318" type="curve"/>
			<point x="253" y="346" type="line"/>
			<point x="226" y="357"/>
			<point x="195" y="380"/>
			<point x="168" y="390" type="curve" smooth="yes"/>
			<point x="69" y="428" type="line"/>
			<point x="46" y="359" type="line"/>
			<point x="149" y="331" type="line" smooth="yes"/>
			<point x="177" y="323"/>
			<point x="216" y="325"/>
		</contour>
	</outline>
</glyph>
<glyph name="comma" format="2">
	<advance width="500"/>
	<unicode hex="002C"/>
	<outline>
		<contour>
			<point x="200" y="108" type="line"/>
			<point x="200" y="5" type="line" smooth="yes"/>
			<point x="200" y="-30"/>
			<point x="193" y="-63"/>
			<point x="160" y="-97" type="curve"/>
			<point x="200" y="-135" type="line"/>
			<point x="266" y="-88"/>
			<point x="301" y="-51"/>
			<point x="304" y="11" type="curve" smooth="yes"/>
			<point x="308" y="108" type="line"/>
		</contour>
	</outline>
</glyph>
<glyph name="period" format="2">
	<advance width="500"/>
	<unicode hex="002E"/>
	<outline>
		<contour>
			<point x="200" y="108" type="line"/>
			<point x="200" y="0" type="line"/>
			<point x="308" y="0" type="line"/>
			<point x="308" y="108" type="line"/>
		</contour>
	</outline>
</glyph>
<glyph name="question" format="2">
	<advance width="500"/>
	<unicode hex="003F"/>
	<outline>
		<contour>
			<point x="95" y="631" type="curve"/>
			<point x="155" y="555" type="line"/>
			<point x="191" y="577" type="line"/>
			<point x="178" y="606" type="line"/>
			<point x="281" y="674"/>
			<point x="356" y="597"/>
			<point x="356" y="518" type="curve" smooth="yes"/>
			<point x="356" y="432"/>
			<point x="223" y="340"/>
			<point x="218" y="199" type="curve"/>
			<point x="288" y="199" type="line"/>
			<point x="299" y="342"/>
			<point x="426" y="407"/>
			<point x="426" y="518" type="curve" smooth="yes"/>
			<point x="426" y="688"/>
			<point x="229" y="757"/>
		</contour>
		<contour>
			<point x="211" y="92" type="line"/>
			<point x="211" y="4" type="line"/>
			<point x="295" y="4" type="line"/>
			<point x="295" y="92" type="line"/>
		</contour>
	</outline>
</glyph>
<glyph name="at" format="2">
	<advance width="500"/>
	<unicode hex="0040"/>
	<outline>
		<contour>
			<point x="451" y="358" type="line" smooth="yes"/>
			<point x="452" y="587"/>
			<point x="385" y="651"/>
			<point x="258" y="651" type="curve" smooth="yes"/>
			<point x="131" y="651"/>
			<point x="61" y="523"/>
			<point x="61" y="299" type="curve" smooth="yes"/>
			<point x="61" y="67"/>
			<point x="129" y="-41"/>
			<point x="258" y="-41" type="curve" smooth="yes"/>
			<point x="410" y="-41" type="line"/>
			<point x="408" y="29" type="line"/>
			<point x="261" y="27" type="line" smooth="yes"/>
			<point x="189" y="26"/>
			<point x="131" y="131"/>
			<point x="131" y="296" type="curve" smooth="yes"/>
			<point x="131" y="473"/>
			<point x="178" y="581"/>
			<point x="261" y="581" type="curve" smooth="yes"/>
			<point x="318.63" y="581"/>
			<point x="355" y="542"/>
			<point x="372" y="469" type="curve"/>
			<point x="129" y="572"/>
			<point x="162.994" y="127"/>
			<point x="330" y="127" type="curve" smooth="yes"/>
			<point x="388.988" y="127"/>
			<point x="448.943" y="176.294"/>
			<point x="450.948" y="349.002" type="curve" smooth="yes"/>
			<point x="451" y="350.806"/>
			<point x="450.997" y="352.601"/>
			<point x="450.992" y="354.386" type="curve" smooth="yes"/>
		</contour>
		<contour>
			<point x="322" y="200" type="curve"/>
			<point x="265" y="197"/>
			<point x="192" y="507"/>
			<point x="381" y="397" type="curve"/>
			<point x="382" y="379"/>
			<point x="383" y="372"/>
			<point x="382.99" y="355.894" type="curve" smooth="yes"/>
			<point x="383" y="262"/>
			<point x="354.643" y="197.032"/>
		</contour>
	</outline>
</glyph>
<glyph name="A" format="2">
	<advance width="500"/>
	<unicode hex="0041"/>
	<outline>
		<contour>
			<point x="198" y="718" type="line"/>
			<point x="58" y="70" type="line"/>
			<point x="38" y="70" type="line"/>
			<point x="36" y="0" type="line"/>
			<point x="143" y="0" type="line"/>
			<point x="142" y="70" type="line"/>
			<point x="126" y="70" type="line"/>
			<point x="160" y="229" type="line"/>
			<point x="336" y="229" type="line"/>
			<point x="369" y="70" type="line"/>
			<point x="356" y="70" type="line"/>
			<point x="356" y="0" type="line"/>
			<point x="464" y="0" type="line"/>
			<point x="462" y="70" type="line"/>
			<point x="442" y="70" type="line"/>
			<point x="301" y="718" type="line"/>
		</contour>
		<contour>
			<point x="177" y="302" type="line"/>
			<point x="250" y="636" type="line"/>
			<point x="320" y="302" type="line"/>
		</contour>
	</outline>
</glyph>
<glyph name="B" format="2">
	<advance width="500"/>
	<unicode hex="0042"/>
	<outline>
		<contour>
			<point x="199" y="704" type="curve" smooth="yes"/>
			<point x="65" y="704" type="line"/>
			<point x="65" y="634" type="line"/>
			<point x="92" y="634" type="line"/>
			<point x="92" y="66" type="line"/>
			<point x="65" y="66" type="line"/>
			<point x="65" y="-4" type="line"/>
			<point x="204" y="-4" type="line" smooth="yes"/>
			<point x="343" y="-4"/>
			<point x="448" y="73"/>
			<point x="448" y="188" type="curve" smooth="yes"/>
			<point x="448" y="275"/>
			<point x="401" y="341"/>
			<point x="338" y="365" type="curve"/>
			<point x="382" y="394"/>
			<point x="416" y="447"/>
			<point x="415" y="514" type="curve" smooth="yes"/>
			<point x="414" y="632"/>
			<point x="343" y="704"/>
		</contour>
		<contour>
			<point x="162" y="66" type="line"/>
			<point x="162" y="325" type="line"/>
			<point x="211" y="325" type="line" smooth="yes"/>
			<point x="288" y="325"/>
			<point x="378" y="297"/>
			<point x="378" y="188" type="curve" smooth="yes"/>
			<point x="378" y="118"/>
			<point x="311" y="66"/>
			<point x="204" y="66" type="curve" smooth="yes"/>
		</contour>
		<contour>
			<point x="162" y="395" type="line"/>
			<point x="162" y="634" type="line"/>
			<point x="199" y="634" type="line" smooth="yes"/>
			<point x="291" y="634"/>
			<point x="345" y="588"/>
			<point x="345" y="514" type="curve" smooth="yes"/>
			<point x="345" y="423"/>
			<point x="274" y="395"/>
			<point x="211" y="395" type="curve" smooth="yes"/>
		</contour>
	</outline>
</glyph>
<glyph name="D" format="2">
	<advance width="500"/>
	<unicode hex="0044"/>
	<outline>
		<contour>
			<point x="213" y="-4" type="line" smooth="yes"/>
			<point x="364" y="-4"/>
			<point x="452" y="133"/>
			<point x="452" y="350" type="curve" smooth="yes"/>
			<point x="452" y="588"/>
			<point x="329" y="704"/>
			<point x="216" y="704" type="curve" smooth="yes"/>
			<point x="63" y="704" type="line"/>
			<point x="63" y="633" type="line"/>
			<point x="88" y="633" type="line"/>
			<point x="88" y="67" type="line"/>
			<point x="63" y="67" type="line"/>
			<point x="63" y="-4" type="line"/>
		</contour>
		<contour>
			<point x="158" y="67" type="line"/>
			<point x="158" y="633" type="line"/>
			<point x="216" y="633" type="line" smooth="yes"/>
			<point x="290" y="633"/>
			<point x="380" y="543"/>
			<point x="380" y="350" type="curve" smooth="yes"/>
			<point x="380" y="187"/>
			<point x="312" y="67"/>
			<point x="216" y="67" type="curve" smooth="yes"/>
		</contour>
	</outline>
</glyph>
<glyph name="E" format="2">
	<advance width="500"/>
	<unicode hex="0045"/>
	<outline>
		<contour>
			<point x="437" y="0" type="line"/>
			<point x="438" y="69" type="line"/>
			<point x="438" y="146" type="line"/>
			<point x="368" y="146" type="line"/>
			<point x="368" y="69" type="line"/>
			<point x="171" y="70" type="line"/>
			<point x="171" y="324" type="line"/>
			<point x="306" y="324" type="line"/>
			<point x="369" y="323" type="line"/>
			<point x="369" y="395" type="line"/>
			<point x="306" y="394" type="line"/>
			<point x="171" y="394" type="line"/>
			<point x="171" y="631" type="line"/>
			<point x="368" y="631" type="line"/>
			<point x="368" y="565" type="line"/>
			<point x="438" y="565" type="line"/>
			<point x="438" y="631" type="line"/>
			<point x="437" y="700" type="line"/>
			<point x="80" y="701" type="line"/>
			<point x="80" y="631" type="line"/>
			<point x="101" y="631" type="line"/>
			<point x="101" y="70" type="line"/>
			<point x="79" y="70" type="line"/>
			<point x="78" y="0" type="line"/>
		</contour>
	</outline>
</glyph>
<glyph name="G" format="2">
	<advance width="500"/>
	<unicode hex="0047"/>
	<outline>
		<contour>
			<point x="362" y="-5" type="line"/>
			<point x="433" y="-5" type="line"/>
			<point x="431" y="287" type="line"/>
			<point x="452" y="287" type="line"/>
			<point x="452" y="354" type="line"/>
			<point x="299" y="354" type="line"/>
			<point x="299" y="284" type="line"/>
			<point x="347" y="285" type="line"/>
			<point x="344" y="195"/>
			<point x="294" y="63"/>
			<point x="230" y="64" type="curve" smooth="yes"/>
			<point x="145" y="65"/>
			<point x="124" y="155"/>
			<point x="124" y="365" type="curve" smooth="yes"/>
			<point x="124" y="523"/>
			<point x="158" y="638"/>
			<point x="235" y="638" type="curve" smooth="yes"/>
			<point x="300" y="638"/>
			<point x="356" y="567"/>
			<point x="359" y="479" type="curve"/>
			<point x="433" y="482" type="line"/>
			<point x="431" y="623" type="line"/>
			<point x="383" y="623" type="line"/>
			<point x="363" y="663"/>
			<point x="306.527" y="708"/>
			<point x="235" y="708" type="curve" smooth="yes"/>
			<point x="100" y="708"/>
			<point x="49" y="555"/>
			<point x="54" y="365" type="curve" smooth="yes"/>
			<point x="58" y="195"/>
			<point x="31" y="-9"/>
			<point x="235" y="-8" type="curve" smooth="yes"/>
			<point x="294" y="-8"/>
			<point x="334" y="31"/>
			<point x="361" y="81" type="curve"/>
		</contour>
		<contour>
			<point x="348" y="285" type="line"/>
			<point x="360" y="285" type="line"/>
		</contour>
	</outline>
</glyph>
<glyph name="I" format="2">
	<advance width="500"/>
	<unicode hex="0049"/>
	<outline>
		<contour>
			<point x="375" y="700" type="line"/>
			<point x="125" y="701" type="line"/>
			<point x="125" y="632" type="line"/>
			<point x="215" y="631.64" type="line"/>
			<point x="215" y="69" type="line"/>
			<point x="125" y="69" type="line"/>
			<point x="125" y="0" type="line"/>
			<point x="375" y="-1" type="line"/>
			<point x="375" y="69" type="line"/>
			<point x="285" y="69" type="line"/>
			<point x="285" y="631.36" type="line"/>
			<point x="375" y="631" type="line"/>
		</contour>
	</outline>
</glyph>
<glyph name="J" format="2">
	<advance width="500"/>
	<unicode hex="004A"/>
	<outline>
		<contour>
			<point x="444" y="702" type="line"/>
			<point x="444" y="632" type="line"/>
			<point x="196" y="633" type="line"/>
			<point x="196" y="703" type="line"/>
		</contour>
		<contour>
			<point x="43" y="7" type="curve"/>
			<point x="101" y="46" type="line"/>
			<point x="131" y="-6"/>
			<point x="175" y="-65"/>
			<point x="226" y="-64" type="curve" smooth="yes"/>
			<point x="303" y="-63"/>
			<point x="318" y="-4"/>
			<point x="318" y="121" type="curve" smooth="yes"/>
			<point x="318" y="655" type="line"/>
			<point x="388" y="655" type="line"/>
			<point x="389" y="121" type="line" smooth="yes"/>
			<point x="389" y="12"/>
			<point x="386" y="-133"/>
			<point x="226" y="-133" type="curve" smooth="yes"/>
			<point x="138" y="-133"/>
			<point x="72" y="-58"/>
		</contour>
	</outline>
</glyph>
<glyph name="K" format="2">
	<advance width="500"/>
	<unicode hex="004B"/>
	<outline>
		<contour>
			<point x="200" y="700" type="line"/>
			<point x="83" y="700" type="line"/>
			<point x="83" y="635" type="line"/>
			<point x="106" y="635" type="line"/>
			<point x="106" y="70" type="line"/>
			<point x="83" y="70" type="line"/>
			<point x="83" y="0" type="line"/>
			<point x="200" y="0" type="line"/>
			<point x="200" y="70" type="line"/>
			<point x="176" y="70" type="line"/>
			<point x="176" y="243.438" type="line"/>
			<point x="233.276" y="332.932" type="line"/>
			<point x="362.041" y="70" type="line"/>
			<point x="339" y="70" type="line"/>
			<point x="339" y="0" type="line"/>
			<point x="462" y="0" type="line"/>
			<point x="462" y="70" type="line"/>
			<point x="439.097" y="70" type="line"/>
			<point x="279.598" y="405.31" type="line"/>
			<point x="426.6" y="635" type="line"/>
			<point x="449" y="635" type="line"/>
			<point x="449" y="700" type="line"/>
			<point x="323" y="700" type="line"/>
			<point x="323" y="635" type="line"/>
			<point x="346.724" y="635" type="line"/>
			<point x="176" y="362.967" type="line"/>
			<point x="176" y="635" type="line"/>
			<point x="200" y="635" type="line"/>
		</contour>
	</outline>
</glyph>
<glyph name="L" format="2">
	<advance width="500"/>
	<unicode hex="004C"/>
	<outline>
		<contour>
			<point x="226" y="700" type="line"/>
			<point x="95" y="700" type="line"/>
			<point x="95" y="630" type="line"/>
			<point x="118.5" y="630" type="line"/>
			<point x="115" y="69" type="line"/>
			<point x="95" y="69" type="line"/>
			<point x="95" y="-1" type="line"/>
			<point x="451" y="-1" type="line"/>
			<point x="452" y="110" type="line"/>
			<point x="381" y="110" type="line"/>
			<point x="381" y="67" type="line"/>
			<point x="185" y="68" type="line"/>
			<point x="188.5" y="630" type="line"/>
			<point x="226" y="630" type="line"/>
		</contour>
	</outline>
</glyph>
<glyph name="M" format="2">
	<advance width="500"/>
	<unicode hex="004D"/>
	<outline>
		<contour>
			<point x="147" y="699" type="line"/>
			<point x="46" y="699" type="line"/>
			<point x="46" y="629" type="line"/>
			<point x="62.9" y="629" type="line"/>
			<point x="54" y="70" type="line"/>
			<point x="35" y="70" type="line"/>
			<point x="35" y="0" type="line"/>
			<point x="155" y="0" type="line"/>
			<point x="155" y="70" type="line"/>
			<point x="122" y="70" type="line"/>
			<point x="126.671" y="495.236" type="line"/>
			<point x="216" y="185" type="line"/>
			<point x="288" y="185" type="line"/>
			<point x="375.075" y="491.55" type="line"/>
			<point x="379" y="70" type="line"/>
			<point x="347" y="70" type="line"/>
			<point x="347" y="0" type="line"/>
			<point x="465" y="0" type="line"/>
			<point x="465" y="70" type="line"/>
			<point x="447" y="70" type="line"/>
			<point x="439" y="629" type="line"/>
			<point x="456" y="629" type="line"/>
			<point x="456" y="699" type="line"/>
			<point x="358" y="699" type="line"/>
			<point x="252.111" y="298.801" type="line"/>
		</contour>
	</outline>
</glyph>
<glyph name="Q" format="2">
	<advance width="500"/>
	<unicode hex="0051"/>
	<outline>
		<contour>
			<point x="84" y="-37" type="curve"/>
			<point x="107" y="-96" type="line"/>
			<point x="415" y="-96" type="line"/>
			<point x="422" y="18" type="line"/>
			<point x="361" y="18" type="line"/>
			<point x="356.28" y="-35.335" type="line"/>
			<point x="203.622" y="-36.268" type="line"/>
			<point x="214.176" y="-28.567"/>
			<point x="223.819" y="-20.236"/>
			<point x="232" y="-11" type="curve" smooth="yes"/>
			<point x="253.26" y="12.713"/>
			<point x="271.846" y="31.077"/>
			<point x="292.677" y="71.429" type="curve"/>
			<point x="423.123" y="93.831"/>
			<point x="452" y="223.502"/>
			<point x="452" y="387" type="curve" smooth="yes"/>
			<point x="452" y="590"/>
			<point x="406" y="706"/>
			<point x="250" y="706" type="curve" smooth="yes"/>
			<point x="94" y="706"/>
			<point x="48" y="590"/>
			<point x="48" y="387" type="curve" smooth="yes"/>
			<point x="48" y="220.937"/>
			<point x="77.79" y="89.771"/>
			<point x="213.538" y="70.454" type="curve"/>
			<point x="182.047" y="24.585"/>
			<point x="150.199" y="-4.299"/>
		</contour>
		<contour>
			<point x="118" y="387" type="curve" smooth="yes"/>
			<point x="118" y="583"/>
			<point x="169" y="637"/>
			<point x="250" y="637" type="curve" smooth="yes"/>
			<point x="328" y="637"/>
			<point x="383" y="583"/>
			<point x="383" y="387" type="curve" smooth="yes"/>
			<point x="383" y="195"/>
			<point x="331" y="139"/>
			<point x="250" y="138" type="curve" smooth="yes"/>
			<point x="169" y="139"/>
			<point x="118" y="195"/>
		</contour>
	</outline>
</glyph>
<glyph name="U" format="2">
	<advance width="500"/>
	<unicode hex="0055"/>
	<outline>
		<contour>
			<point x="174" y="705" type="line"/>
			<point x="40" y="705" type="line"/>
			<point x="40" y="635" type="line"/>
			<point x="72" y="635" type="line"/>
			<point x="72" y="220" type="line" smooth="yes"/>
			<point x="72" y="101"/>
			<point x="101" y="-7"/>
			<point x="250" y="-7" type="curve" smooth="yes"/>
			<point x="399" y="-7"/>
			<point x="427" y="101"/>
			<point x="427" y="220" type="curve" smooth="yes"/>
			<point x="427" y="635" type="line"/>
			<point x="460" y="635" type="line"/>
			<point x="460" y="705" type="line"/>
			<point x="326" y="705" type="line"/>
			<point x="326" y="635" type="line"/>
			<point x="357" y="635" type="line"/>
			<point x="357" y="220" type="line" smooth="yes"/>
			<point x="357" y="88"/>
			<point x="313" y="64"/>
			<point x="250" y="63" type="curve" smooth="yes"/>
			<point x="187" y="64"/>
			<point x="143" y="88"/>
			<point x="143" y="220" type="curve" smooth="yes"/>
			<point x="143" y="635" type="line"/>
			<point x="174" y="635" type="line"/>
		</contour>
	</outline>
</glyph>
<glyph name="Y" format="2">
	<advance width="500"/>
	<unicode hex="0059"/>
	<outline>
		<contour>
			<point x="188" y="0" type="line"/>
			<point x="312" y="0" type="line"/>
			<point x="312" y="70" type="line"/>
			<point x="284.734" y="70" type="line"/>
			<point x="287" y="286" type="line"/>
			<point x="426.594" y="630" type="line"/>
			<point x="469" y="630" type="line"/>
			<point x="470" y="700" type="line"/>
			<point x="323" y="700" type="line"/>
			<point x="324" y="630" type="line"/>
			<point x="349.646" y="630" type="line"/>
			<point x="250" y="384" type="line"/>
			<point x="150.354" y="630" type="line"/>
			<point x="176" y="630" type="line"/>
			<point x="177" y="700" type="line"/>
			<point x="30" y="700" type="line"/>
			<point x="31" y="630" type="line"/>
			<point x="73.406" y="630" type="line"/>
			<point x="213" y="286" type="line"/>
			<point x="213" y="70" type="line"/>
			<point x="188" y="70" type="line"/>
		</contour>
	</outline>
</glyph>
<glyph name="Z" format="2">
	<advance width="500"/>
	<unicode hex="005A"/>
	<outline>
		<contour>
			<point x="64" y="0" type="line"/>
			<point x="437" y="0" type="line"/>
			<point x="447" y="93" type="line"/>
			<point x="375" y="93" type="line"/>
			<point x="373.022" y="70" type="line"/>
			<point x="150" y="70" type="line"/>
			<point x="436" y="631" type="line"/>
			<point x="436" y="700" type="line"/>
			<point x="63" y="700" type="line"/>
			<point x="53" y="607" type="line"/>
			<point x="125" y="607" type="line"/>
			<point x="127.065" y="631" type="line"/>
			<point x="350" y="631" type="line"/>
			<point x="64" y="69" type="line"/>
		</contour>
	</outline>
</glyph>
<glyph name="bracketright" format="2">
	<advance width="500"/>
	<unicode hex="005D"/>
	<outline>
		<contour>
			<point x="89" y="-47" type="line"/>
			<point x="374" y="-47" type="line"/>
			<point x="374" y="727" type="line"/>
			<point x="89" y="727" type="line"/>
			<point x="89" y="657" type="line"/>
			<point x="296" y="657" type="line"/>
			<point x="296" y="23" type="line"/>
			<point x="89" y="23" type="line"/>
		</contour>
	</outline>
</glyph>
<glyph name="asciicircum" format="2">
	<advance width="500"/>
	<unicode hex="005E"/>
	<outline>
		<contour>
			<point x="389" y="474" type="line"/>
			<point x="285" y="664" type="line"/>
			<point x="215" y="664" type="line"/>
			<point x="319" y="474" type="line"/>
		</contour>
		<contour>
			<point x="181" y="474" type="line"/>
			<point x="285" y="664" type="line"/>
			<point x="215" y="664" type="line"/>
			<point x="111" y="474" type="line"/>
		</contour>
	</outline>
</glyph>
<glyph name="a" format="2">
	<advance width="500"/>
	<unicode hex="0061"/>
	<outline>
		<contour>
			<point x="354" y="502" type="line"/>
			<point x="349" y="446" type="line"/>
			<point x="323" y="484"/>
			<point x="283" y="504"/>
			<point x="225" y="504" type="curve" smooth="yes"/>
			<point x="101" y="504"/>
			<point x="39" y="416"/>
			<point x="39" y="250" type="curve" smooth="yes"/>
			<point x="39" y="98"/>
			<point x="97" y="-3"/>
			<point x="225" y="-3" type="curve" smooth="yes"/>
			<point x="279" y="-3"/>
			<point x="317" y="15"/>
			<point x="342" y="47" type="curve"/>
			<point x="344" y="-1" type="line"/>
			<point x="429" y="-1" type="line"/>
			<point x="426" y="79" type="line"/>
			<point x="413" y="79" type="line"/>
			<point x="420" y="422" type="line"/>
			<point x="435" y="422" type="line"/>
			<point x="439" y="502" type="line"/>
		</contour>
		<contour>
			<point x="109" y="250" type="curve" smooth="yes"/>
			<point x="109" y="368"/>
			<point x="156" y="437"/>
			<point x="225" y="437" type="curve" smooth="yes"/>
			<point x="292" y="437"/>
			<point x="348" y="373"/>
			<point x="346" y="263" type="curve" smooth="yes"/>
			<point x="345" y="223" type="line" smooth="yes"/>
			<point x="343" y="123"/>
			<point x="290" y="62"/>
			<point x="225" y="62" type="curve" smooth="yes"/>
			<point x="155" y="62"/>
			<point x="109" y="134"/>
		</contour>
	</outline>
</glyph>
<glyph name="c" format="2">
	<advance width="500"/>
	<unicode hex="0063"/>
	<outline>
		<contour>
			<point x="435" y="192" type="curve"/>
			<point x="362" y="192" type="line"/>
			<point x="354" y="105"/>
			<point x="320" y="59"/>
			<point x="251" y="59" type="curve" smooth="yes"/>
			<point x="170" y="59"/>
			<point x="131" y="124"/>
			<point x="131" y="244" type="curve" smooth="yes"/>
			<point x="131" y="371"/>
			<point x="171" y="432"/>
			<point x="251" y="432" type="curve" smooth="yes"/>
			<point x="309" y="432"/>
			<point x="344" y="397"/>
			<point x="358" y="334" type="curve"/>
			<point x="431" y="334" type="line"/>
			<point x="431" y="457" type="line"/>
			<point x="376.782" y="457" type="line"/>
			<point x="346.998" y="485.542"/>
			<point x="305.02" y="499"/>
			<point x="248" y="499" type="curve" smooth="yes"/>
			<point x="114" y="499"/>
			<point x="60" y="423"/>
			<point x="60" y="245" type="curve" smooth="yes"/>
			<point x="60" y="79"/>
			<point x="112" y="-8"/>
			<point x="248" y="-8" type="curve" smooth="yes"/>
			<point x="370" y="-8"/>
			<point x="424" y="58"/>
		</contour>
	</outline>
</glyph>
<glyph name="g" format="2">
	<advance width="500"/>
	<unicode hex="0067"/>
	<outline>
		<contour>
			<point x="250" y="75" type="curve" smooth="yes"/>
			<point x="174" y="75"/>
			<point x="133" y="165"/>
			<point x="133" y="247" type="curve" smooth="yes"/>
			<point x="133" y="333"/>
			<point x="174" y="432"/>
			<point x="250" y="432" type="curve" smooth="yes"/>
			<point x="322" y="432"/>
			<point x="343" y="371"/>
			<point x="343" y="244" type="curve" smooth="yes"/>
			<point x="343" y="132"/>
			<point x="325" y="75"/>
		</contour>
		<contour>
			<point x="60" y="248" type="curve" smooth="yes"/>
			<point x="60" y="120"/>
			<point x="122" y="6"/>
			<point x="247" y="6" type="curve" smooth="yes"/>
			<point x="290" y="6"/>
			<point x="322" y="19"/>
			<point x="342" y="43" type="curve"/>
			<point x="337" y="-63"/>
			<point x="304" y="-131"/>
			<point x="226" y="-131" type="curve" smooth="yes"/>
			<point x="185" y="-131"/>
			<point x="156" y="-116"/>
			<point x="138" y="-87" type="curve"/>
			<point x="88" y="-141" type="line"/>
			<point x="119" y="-177"/>
			<point x="158" y="-200"/>
			<point x="223" y="-200" type="curve" smooth="yes"/>
			<point x="364" y="-200"/>
			<point x="411" y="-107"/>
			<point x="411" y="61" type="curve" smooth="yes"/>
			<point x="411" y="422" type="line"/>
			<point x="420" y="422" type="line"/>
			<point x="424" y="502" type="line"/>
			<point x="344" y="502" type="line"/>
			<point x="342" y="466" type="line"/>
			<point x="320" y="487"/>
			<point x="290" y="499"/>
			<point x="247" y="499" type="curve" smooth="yes"/>
			<point x="125" y="499"/>
			<point x="60" y="377"/>
		</contour>
	</outline>
</glyph>
<glyph name="h" format="2">
	<advance width="500"/>
	<unicode hex="0068"/>
	<outline>
		<contour>
			<point x="420" y="230" type="line" smooth="yes"/>
			<point x="420" y="412"/>
			<point x="375" y="490"/>
			<point x="242" y="490" type="curve" smooth="yes"/>
			<point x="197" y="490"/>
			<point x="170" y="474"/>
			<point x="146" y="445" type="curve"/>
			<point x="146" y="625" type="line"/>
			<point x="144" y="705" type="line"/>
			<point x="62" y="705" type="line"/>
			<point x="65" y="625" type="line"/>
			<point x="76" y="625" type="line"/>
			<point x="76" y="79" type="line"/>
			<point x="63" y="79" type="line"/>
			<point x="60" y="-1" type="line"/>
			<point x="144" y="-1" type="line"/>
			<point x="146" y="79" type="line"/>
			<point x="146" y="228" type="line" smooth="yes"/>
			<point x="146" y="348"/>
			<point x="174" y="422"/>
			<point x="245" y="422" type="curve" smooth="yes"/>
			<point x="328" y="422"/>
			<point x="355" y="365"/>
			<point x="355" y="230" type="curve" smooth="yes"/>
			<point x="355" y="78" type="line"/>
			<point x="356" y="-1" type="line"/>
			<point x="438" y="-1" type="line"/>
			<point x="435" y="79" type="line"/>
			<point x="420" y="79" type="line"/>
			<point x="420" y="227" type="line"/>
		</contour>
	</outline>
</glyph>
<glyph name="j" format="2">
	<advance width="500"/>
	<unicode hex="006A"/>
	<outline>
		<contour>
			<point x="121" y="491" type="line"/>
			<point x="120" y="421" type="line"/>
			<point x="282" y="421" type="line"/>
			<point x="282" y="12" type="line" smooth="yes"/>
			<point x="282" y="-76"/>
			<point x="273" y="-121"/>
			<point x="245" y="-121" type="curve" smooth="yes"/>
			<point x="199" y="-121"/>
			<point x="162" y="-78"/>
			<point x="139" y="-28" type="curve"/>
			<point x="81" y="-62" type="line"/>
			<point x="138" y="-153"/>
			<point x="179" y="-189"/>
			<point x="245" y="-189" type="curve" smooth="yes"/>
			<point x="313" y="-189"/>
			<point x="352" y="-122"/>
			<point x="352" y="13" type="curve" smooth="yes"/>
			<point x="352" y="491" type="line"/>
		</contour>
		<contour>
			<point x="262" y="581" type="line"/>
			<point x="351" y="581" type="line"/>
			<point x="351" y="668" type="line"/>
			<point x="262" y="668" type="line"/>
		</contour>
	</outline>
</glyph>
<glyph name="k" format="2">
	<advance width="500"/>
	<unicode hex="006B"/>
	<outline>
		<contour>
			<point x="174" y="-1" type="line"/>
			<point x="174" y="217" type="line"/>
			<point x="212" y="217" type="line"/>
			<point x="361" y="0" type="line"/>
			<point x="444" y="0" type="line"/>
			<point x="272" y="250" type="line"/>
			<point x="444" y="500" type="line"/>
			<point x="361" y="500" type="line"/>
			<point x="212" y="288" type="line"/>
			<point x="174" y="288" type="line"/>
			<point x="174" y="705" type="line"/>
			<point x="90" y="705" type="line"/>
			<point x="93" y="625" type="line"/>
			<point x="104" y="625" type="line"/>
			<point x="104" y="79" type="line"/>
			<point x="91" y="79" type="line"/>
			<point x="88" y="-1" type="line"/>
		</contour>
	</outline>
</glyph>
<glyph name="n" format="2">
	<advance width="500"/>
	<unicode hex="006E"/>
	<outline>
		<contour>
			<point x="173" y="-2" type="line"/>
			<point x="175" y="68" type="line"/>
			<point x="175" y="331" type="line" smooth="yes"/>
			<point x="175" y="392"/>
			<point x="214" y="448"/>
			<point x="274" y="448" type="curve" smooth="yes"/>
			<point x="324" y="448"/>
			<point x="363" y="392"/>
			<point x="363" y="331" type="curve" smooth="yes"/>
			<point x="363" y="68" type="line"/>
			<point x="365" y="-2" type="line"/>
			<point x="447" y="-2" type="line"/>
			<point x="444" y="68" type="line"/>
			<point x="433" y="68" type="line"/>
			<point x="433" y="331" type="line" smooth="yes"/>
			<point x="433" y="430"/>
			<point x="367" y="510"/>
			<point x="274" y="510" type="curve" smooth="yes"/>
			<point x="217" y="510"/>
			<point x="175" y="486"/>
			<point x="141" y="447" type="curve"/>
			<point x="125" y="471"/>
			<point x="110" y="491"/>
			<point x="97" y="506" type="curve"/>
			<point x="35" y="455" type="line"/>
			<point x="49" y="440"/>
			<point x="64" y="419"/>
			<point x="75" y="398" type="curve"/>
			<point x="91" y="409" type="line"/>
			<point x="105" y="382"/>
			<point x="106" y="359"/>
			<point x="106" y="326" type="curve" smooth="yes"/>
			<point x="104" y="68" type="line"/>
			<point x="93" y="68" type="line"/>
			<point x="93" y="-2" type="line"/>
		</contour>
	</outline>
</glyph>
<glyph name="o" format="2">
	<advance width="500"/>
	<unicode hex="006F"/>
	<outline>
		<contour>
			<point x="250" y="57" type="curve" smooth="yes"/>
			<point x="180" y="57"/>
			<point x="127" y="134"/>
			<point x="127" y="250" type="curve" smooth="yes"/>
			<point x="127" y="368"/>
			<point x="181" y="442"/>
			<point x="250" y="442" type="curve" smooth="yes"/>
			<point x="320" y="442"/>
			<point x="373" y="368"/>
			<point x="373" y="249" type="curve" smooth="yes"/>
			<point x="373" y="134"/>
			<point x="320" y="57"/>
		</contour>
		<contour>
			<point x="250" y="-3" type="curve" smooth="yes"/>
			<point x="378" y="-3"/>
			<point x="443" y="98"/>
			<point x="443" y="249" type="curve" smooth="yes"/>
			<point x="443" y="416"/>
			<point x="374" y="504"/>
			<point x="250" y="504" type="curve" smooth="yes"/>
			<point x="126" y="504"/>
			<point x="57" y="416"/>
			<point x="57" y="250" type="curve" smooth="yes"/>
			<point x="57" y="98"/>
			<point x="122" y="-3"/>
		</contour>
	</outline>
</glyph>
<glyph name="p" format="2">
	<advance width="500"/>
	<unicode hex="0070"/>
	<outline>
		<contour>
			<point x="274" y="55" type="curve" smooth="yes"/>
			<point x="190" y="55"/>
			<point x="157" y="122"/>
			<point x="157" y="242" type="curve" smooth="yes"/>
			<point x="157" y="366"/>
			<point x="191" y="429"/>
			<point x="274" y="429" type="curve" smooth="yes"/>
			<point x="358" y="429"/>
			<point x="391" y="366"/>
			<point x="391" y="242" type="curve" smooth="yes"/>
			<point x="391" y="120"/>
			<point x="358" y="55"/>
		</contour>
		<contour>
			<point x="71" y="-203" type="line"/>
			<point x="155" y="-203" type="line"/>
			<point x="157" y="-123" type="line"/>
			<point x="157" y="35" type="line"/>
			<point x="183" y="6"/>
			<point x="220" y="-8"/>
			<point x="271" y="-8" type="curve" smooth="yes"/>
			<point x="413" y="-8"/>
			<point x="461" y="74"/>
			<point x="461" y="243" type="curve" smooth="yes"/>
			<point x="461" y="418"/>
			<point x="413" y="496"/>
			<point x="271" y="496" type="curve" smooth="yes"/>
			<point x="222" y="496"/>
			<point x="184" y="481"/>
			<point x="157" y="450" type="curve"/>
			<point x="155" y="500" type="line"/>
			<point x="73" y="500" type="line"/>
			<point x="76" y="420" type="line"/>
			<point x="87" y="420" type="line"/>
			<point x="87" y="-123" type="line"/>
			<point x="74" y="-123" type="line"/>
		</contour>
	</outline>
</glyph>
<glyph name="s" format="2">
	<advance width="500"/>
	<unicode hex="0073"/>
	<outline>
		<contour>
			<point x="358" y="339" type="curve"/>
			<point x="429" y="350" type="line"/>
			<point x="428" y="355" type="line"/>
			<point x="429" y="353" type="line"/>
			<point x="433" y="455" type="line"/>
			<point x="371" y="455" type="line"/>
			<point x="340" y="483"/>
			<point x="300" y="498"/>
			<point x="250" y="499" type="curve" smooth="yes"/>
			<point x="65" y="501"/>
			<point x="-15" y="315"/>
			<point x="152" y="244" type="curve" smooth="yes"/>
			<point x="223" y="214"/>
			<point x="265" y="209"/>
			<point x="319" y="186" type="curve" smooth="yes"/>
			<point x="391" y="155"/>
			<point x="370" y="58"/>
			<point x="267" y="58" type="curve" smooth="yes"/>
			<point x="194" y="58"/>
			<point x="156" y="99"/>
			<point x="141" y="156" type="curve"/>
			<point x="68" y="138" type="line"/>
			<point x="91" y="45"/>
			<point x="158" y="-9"/>
			<point x="252" y="-10" type="curve" smooth="yes"/>
			<point x="420" y="-12"/>
			<point x="522" y="174"/>
			<point x="349" y="245" type="curve" smooth="yes"/>
			<point x="280" y="273"/>
			<point x="236" y="272"/>
			<point x="182" y="303" type="curve" smooth="yes"/>
			<point x="120" y="339"/>
			<point x="147" y="431"/>
			<point x="235" y="431" type="curve" smooth="yes"/>
			<point x="308" y="431"/>
			<point x="344" y="396"/>
		</contour>
	</outline>
</glyph>
<glyph name="t" format="2">
	<advance width="500"/>
	<unicode hex="0074"/>
	<outline>
		<contour>
			<point x="279" y="182" type="curve" smooth="yes"/>
			<point x="279" y="428" type="line"/>
			<point x="425" y="429" type="line"/>
			<point x="425" y="498" type="line"/>
			<point x="279" y="498" type="line"/>
			<point x="279" y="648" type="line"/>
			<point x="206" y="648" type="line"/>
			<point x="206" y="498" type="line"/>
			<point x="70" y="498" type="line"/>
			<point x="70" y="429" type="line"/>
			<point x="206" y="428" type="line"/>
			<point x="206" y="184" type="line" smooth="yes"/>
			<point x="206" y="56"/>
			<point x="223" y="-2"/>
			<point x="315" y="-2" type="curve" smooth="yes"/>
			<point x="378" y="-2"/>
			<point x="419" y="42"/>
			<point x="467" y="133" type="curve"/>
			<point x="409" y="167" type="line"/>
			<point x="387" y="124"/>
			<point x="346" y="69"/>
			<point x="315" y="69" type="curve" smooth="yes"/>
			<point x="285" y="69"/>
			<point x="279" y="106"/>
		</contour>
	</outline>
</glyph>
<glyph name="u" format="2">
	<advance width="500"/>
	<unicode hex="0075"/>
	<outline>
		<contour>
			<point x="133" y="242" type="curve" smooth="yes"/>
			<point x="135" y="490" type="line"/>
			<point x="53" y="490" type="line"/>
			<point x="55" y="410" type="line"/>
			<point x="65" y="410" type="line"/>
			<point x="64" y="243" type="line" smooth="yes"/>
			<point x="63" y="77"/>
			<point x="109" y="-9"/>
			<point x="228" y="-10" type="curve" smooth="yes"/>
			<point x="274.197" y="-10.537"/>
			<point x="316.355" y="14.03"/>
			<point x="345.482" y="66.648" type="curve"/>
			<point x="358" y="38"/>
			<point x="377" y="15"/>
			<point x="409" y="-10" type="curve"/>
			<point x="454" y="43" type="line"/>
			<point x="408" y="83"/>
			<point x="395" y="112"/>
			<point x="395" y="163" type="curve" smooth="yes"/>
			<point x="394" y="410" type="line"/>
			<point x="404" y="410" type="line"/>
			<point x="407" y="490" type="line"/>
			<point x="325" y="490" type="line"/>
			<point x="325" y="410" type="line"/>
			<point x="325.728" y="247.875" type="line" smooth="yes"/>
			<point x="326" y="136"/>
			<point x="287" y="53"/>
			<point x="230" y="53" type="curve" smooth="yes"/>
			<point x="163" y="53"/>
			<point x="132" y="122"/>
		</contour>
	</outline>
</glyph>
<glyph name="v" format="2">
	<advance width="500"/>
	<unicode hex="0076"/>
	<outline>
		<contour>
			<point x="290" y="0" type="line"/>
			<point x="421" y="430" type="line"/>
			<point x="456" y="430" type="line"/>
			<point x="459" y="500" type="line"/>
			<point x="367" y="500" type="line"/>
			<point x="250" y="85" type="line"/>
			<point x="132" y="497" type="line"/>
			<point x="132" y="500" type="line"/>
			<point x="41" y="500" type="line"/>
			<point x="43" y="430" type="line"/>
			<point x="77" y="430" type="line"/>
			<point x="210" y="0" type="line"/>
		</contour>
	</outline>
</glyph>
<glyph name="x" format="2">
	<advance width="500"/>
	<unicode hex="0078"/>
	<outline>
		<contour>
			<point x="359" y="1" type="line"/>
			<point x="446" y="1" type="line"/>
			<point x="443" y="71" type="line"/>
			<point x="396" y="71" type="line"/>
			<point x="291" y="250" type="line"/>
			<point x="396" y="429" type="line"/>
			<point x="443" y="429" type="line"/>
			<point x="446" y="499" type="line"/>
			<point x="359" y="499" type="line"/>
			<point x="249.5" y="316.287" type="line"/>
			<point x="140" y="499" type="line"/>
			<point x="54" y="499" type="line"/>
			<point x="56" y="429" type="line"/>
			<point x="103" y="429" type="line"/>
			<point x="208" y="250" type="line"/>
			<point x="103" y="71" type="line"/>
			<point x="56" y="71" type="line"/>
			<point x="54" y="1" type="line"/>
			<point x="140" y="1" type="line"/>
			<point x="249.5" y="183.713" type="line"/>
		</contour>
	</outline>
</glyph>
<glyph name="y" format="2">
	<advance width="500"/>
	<unicode hex="0079"/>
	<outline>
		<contour>
			<point x="216" y="-200" type="line"/>
			<point x="417.6" y="430" type="line"/>
			<point x="457" y="430" type="line"/>
			<point x="460" y="500" type="line"/>
			<point x="368" y="500" type="line"/>
			<point x="253.322" y="141.632" type="line"/>
			<point x="132" y="500" type="line"/>
			<point x="41" y="500" type="line"/>
			<point x="43" y="430" type="line"/>
			<point x="84.058" y="430" type="line"/>
			<point x="219.496" y="35.925" type="line"/>
			<point x="166.08" y="-131" type="line"/>
			<point x="123" y="-131" type="line"/>
			<point x="119" y="-201" type="line"/>
			<point x="215" y="-201" type="line"/>
			<point x="214.957" y="-200" type="line"/>
		</contour>
	</outline>
</glyph>
<glyph name="copyright" format="2">
	<advance width="500"/>
	<unicode hex="00A9"/>
	<outline>
		<contour>
			<point x="250" y="125" type="curve" smooth="yes"/>
			<point x="365" y="125"/>
			<point x="465" y="224"/>
			<point x="465" y="340" type="curve" smooth="yes"/>
			<point x="465" y="455"/>
			<point x="365" y="555"/>
			<point x="250" y="555" type="curve" smooth="yes"/>
			<point x="134" y="555"/>
			<point x="35" y="455"/>
			<point x="35" y="340" type="curve" smooth="yes"/>
			<point x="35" y="224"/>
			<point x="134" y="125"/>
		</contour>
		<contour>
			<point x="250" y="175" type="curve" smooth="yes"/>
			<point x="159" y="175"/>
			<point x="85" y="249"/>
			<point x="85" y="340" type="curve" smooth="yes"/>
			<point x="85" y="430"/>
			<point x="159" y="505"/>
			<point x="250" y="505" type="curve" smooth="yes"/>
			<point x="340" y="505"/>
			<point x="415" y="430"/>
			<point x="415" y="340" type="curve" smooth="yes"/>
			<point x="415" y="249"/>
			<point x="340" y="175"/>
		</contour>
		<contour>
			<point x="312" y="298" type="curve"/>
			<point x="346" y="269" type="line"/>
			<point x="324" y="240"/>
			<point x="289" y="220"/>
			<point x="250" y="220" type="curve" smooth="yes"/>
			<point x="184" y="220"/>
			<point x="130" y="274"/>
			<point x="130" y="340" type="curve" smooth="yes"/>
			<point x="130" y="405"/>
			<point x="184" y="460"/>
			<point x="250" y="460" type="curve" smooth="yes"/>
			<point x="287" y="460"/>
			<point x="322" y="441"/>
			<point x="345" y="413" type="curve"/>
			<point x="311" y="386" type="line"/>
			<point x="296" y="404"/>
			<point x="274" y="413"/>
			<point x="250" y="413" type="curve" smooth="yes"/>
			<point x="206" y="413"/>
			<point x="180" y="383"/>
			<point x="180" y="340" type="curve" smooth="yes"/>
			<point x="180" y="296"/>
			<point x="206" y="268"/>
			<point x="250" y="268" type="curve" smooth="yes"/>
			<point x="275" y="268"/>
			<point x="297" y="279"/>
		</contour>
	</outline>
</glyph>
<glyph name="periodcentered" format="2">
	<advance width="500"/>
	<unicode hex="00B7"/>
	<outline>
		<contour>
			<point x="250" y="290" type="curve" smooth="yes"/>
			<point x="277" y="290"/>
			<point x="300" y="313"/>
			<point x="300" y="340" type="curve" smooth="yes"/>
			<point x="300" y="367"/>
			<point x="277" y="390"/>
			<point x="250" y="390" type="curve" smooth="yes"/>
			<point x="222" y="390"/>
			<point x="200" y="367"/>
			<point x="200" y="340" type="curve" smooth="yes"/>
			<point x="200" y="313"/>
			<point x="222" y="290"/>
		</contour>
	</outline>
</glyph>
<glyph name="questiondown" format="2">
	<advance width="500"/>
	<unicode hex="00BF"/>
	<outline>
		<contour>
			<point x="240" y="581" type="curve" smooth="yes"/>
			<point x="207" y="581"/>
			<point x="181" y="554"/>
			<point x="181" y="522" type="curve" smooth="yes"/>
			<point x="181" y="490"/>
			<point x="207" y="463"/>
			<point x="240" y="463" type="curve" smooth="yes"/>
			<point x="272" y="463"/>
			<point x="299" y="490"/>
			<point x="299" y="522" type="curve" smooth="yes"/>
			<point x="299" y="554"/>
			<point x="272" y="581"/>
		</contour>
		<contour>
			<point x="98" y="-47" type="line"/>
			<point x="232" y="-173"/>
			<point x="422" y="-114"/>
			<point x="422" y="56" type="curve" smooth="yes"/>
			<point x="422" y="173"/>
			<point x="321" y="192"/>
			<point x="282" y="351" type="curve"/>
			<point x="212" y="334" type="line"/>
			<point x="245" y="177"/>
			<point x="352" y="136"/>
			<point x="352" y="44" type="curve" smooth="yes"/>
			<point x="352" y="-15"/>
			<point x="268" y="-105"/>
			<point x="133" y="4" type="curve"/>
		</contour>
	</outline>
</glyph>
<glyph name="multiply" format="2">
	<advance width="500"/>
	<unicode hex="00D7"/>
	<outline>
		<contour>
			<point x="124" y="512" type="line"/>
			<point x="76" y="464" type="line"/>
			<point x="375" y="168" type="line"/>
			<point x="423" y="216" type="line"/>
		</contour>
		<contour>
			<point x="429" y="470" type="line"/>
			<point x="380" y="518" type="line"/>
			<point x="72" y="210" type="line"/>
			<point x="120" y="162" type="line"/>
		</contour>
	</outline>
</glyph>
<glyph name="Gamma" format="2">
	<advance width="500"/>
	<unicode hex="0393"/>
	<outline>
		<contour>
			<point x="226" y="-1" type="line"/>
			<point x="226" y="69" type="line"/>
			<point x="189" y="69" type="line"/>
			<point x="185" y="631" type="line"/>
			<point x="381" y="632" type="line"/>
			<point x="381" y="589" type="line"/>
			<point x="452" y="589" type="line"/>
			<point x="451" y="700" type="line"/>
			<point x="95" y="700" type="line"/>
			<point x="95" y="630" type="line"/>
			<point x="115" y="630" type="line"/>
			<point x="119" y="69" type="line"/>
			<point x="95" y="69" type="line"/>
			<point x="95" y="-1" type="line"/>
		</contour>
	</outline>
</glyph>
<glyph name="Delta" format="2">
	<advance width="500"/>
	<unicode hex="0394"/>
	<outline>
		<contour>
			<point x="250" y="574" type="line"/>
			<point x="372" y="70" type="line"/>
			<point x="128" y="70" type="line"/>
		</contour>
		<contour>
			<point x="215" y="700" type="line"/>
			<point x="48" y="70" type="line"/>
			<point x="48" y="0" type="line"/>
			<point x="452" y="0" type="line"/>
			<point x="452" y="70" type="line"/>
			<point x="285" y="700" type="line"/>
		</contour>
	</outline>
</glyph>
<glyph name="Theta" format="2">
	<advance width="500"/>
	<unicode hex="0398"/>
	<outline>
		<contour>
			<point x="245" y="704" type="curve" smooth="yes"/>
			<point x="401" y="704"/>
			<point x="447" y="575"/>
			<point x="447" y="350" type="curve" smooth="yes"/>
			<point x="447" y="150"/>
			<point x="412" y="-4"/>
			<point x="245" y="-4" type="curve" smooth="yes"/>
			<point x="78" y="-4"/>
			<point x="43" y="150"/>
			<point x="43" y="350" type="curve" smooth="yes"/>
			<point x="43" y="575"/>
			<point x="89" y="704"/>
		</contour>
		<contour>
			<point x="113" y="350" type="curve" smooth="yes"/>
			<point x="113" y="137"/>
			<point x="164" y="68"/>
			<point x="245" y="67" type="curve" smooth="yes"/>
			<point x="326" y="68"/>
			<point x="378" y="137"/>
			<point x="378" y="350" type="curve" smooth="yes"/>
			<point x="378" y="568"/>
			<point x="323" y="634"/>
			<point x="245" y="634" type="curve" smooth="yes"/>
			<point x="164" y="634"/>
			<point x="113" y="568"/>
		</contour>
		<contour>
			<point x="172" y="387" type="curve"/>
			<point x="172" y="306" type="line"/>
			<point x="183" y="309"/>
			<point x="193" y="311"/>
			<point x="204" y="311" type="curve" smooth="yes"/>
			<point x="296" y="311" type="line" smooth="yes"/>
			<point x="307" y="311"/>
			<point x="317" y="309"/>
			<point x="328" y="306" type="curve"/>
			<point x="328" y="387" type="line"/>
			<point x="317" y="384"/>
			<point x="307" y="382"/>
			<point x="296" y="382" type="curve" smooth="yes"/>
			<point x="204" y="382" type="line" smooth="yes"/>
			<point x="193" y="382"/>
			<point x="183" y="384"/>
		</contour>
	</outline>
</glyph>
<glyph name="Lambda" format="2">
	<advance width="500"/>
	<unicode hex="039B"/>
	<outline>
		<contour>
			<point x="250" y="636" type="line"/>
			<point x="369" y="70" type="line"/>
			<point x="356" y="70" type="line"/>
			<point x="356" y="0" type="line"/>
			<point x="464" y="0" type="line"/>
			<point x="462" y="70" type="line"/>
			<point x="442" y="70" type="line"/>
			<point x="301" y="718" type="line"/>
			<point x="198" y="718" type="line"/>
			<point x="58" y="70" type="line"/>
			<point x="38" y="70" type="line"/>
			<point x="36" y="0" type="line"/>
			<point x="143" y="0" type="line"/>
			<point x="142" y="70" type="line"/>
			<point x="126" y="70" type="line"/>
		</contour>
	</outline>
</glyph>
<glyph name="Xi" format="2">
	<advance width="500"/>
	<unicode hex="039E"/>
	<outline>
		<contour>
			<point x="103" y="390" type="curve"/>
			<point x="103" y="309" type="line"/>
			<point x="114" y="312"/>
			<point x="124" y="314"/>
			<point x="135" y="314" type="curve" smooth="yes"/>
			<point x="365" y="314" type="line" smooth="yes"/>
			<point x="376" y="314"/>
			<point x="386" y="312"/>
			<point x="397" y="309" type="curve"/>
			<point x="397" y="390" type="line"/>
			<point x="386" y="387"/>
			<point x="376" y="385"/>
			<point x="365" y="385" type="curve" smooth="yes"/>
			<point x="135" y="385" type="line" smooth="yes"/>
			<point x="124" y="385"/>
			<point x="114" y="387"/>
		</contour>
		<contour>
			<point x="54" y="704" type="line"/>
			<point x="54" y="622" type="line"/>
			<point x="65" y="625"/>
			<point x="95" y="632"/>
			<point x="106" y="632" type="curve" smooth="yes"/>
			<point x="394" y="632" type="line" smooth="yes"/>
			<point x="405" y="632"/>
			<point x="435" y="625"/>
			<point x="446" y="622" type="curve"/>
			<point x="446" y="704" type="line"/>
		</contour>
		<contour>
			<point x="55" y="76" type="curve"/>
			<point x="55" y="-6" type="line"/>
			<point x="446" y="-6" type="line"/>
			<point x="446" y="76" type="line"/>
			<point x="435" y="73"/>
			<point x="405" y="66"/>
			<point x="394" y="66" type="curve" smooth="yes"/>
			<point x="107" y="66" type="line" smooth="yes"/>
			<point x="96" y="66"/>
			<point x="66" y="73"/>
		</contour>
	</outline>
</glyph>
<glyph name="Pi" format="2">
	<advance width="500"/>
	<unicode hex="03A0"/>
	<outline>
		<contour>
			<point x="173" y="-1" type="line"/>
			<point x="173" y="69" type="line"/>
			<point x="151" y="69" type="line"/>
			<point x="151" y="631" type="line"/>
			<point x="349" y="631" type="line"/>
			<point x="349" y="69" type="line"/>
			<point x="327" y="69" type="line"/>
			<point x="327" y="-1" type="line"/>
			<point x="438" y="-1" type="line"/>
			<point x="438" y="69" type="line"/>
			<point x="419" y="69" type="line"/>
			<point x="419" y="630" type="line"/>
			<point x="443" y="630" type="line"/>
			<point x="443" y="700" type="line"/>
			<point x="57" y="700" type="line"/>
			<point x="57" y="630" type="line"/>
			<point x="81" y="630" type="line"/>
			<point x="81" y="69" type="line"/>
			<point x="62" y="69" type="line"/>
			<point x="62" y="-1" type="line"/>
		</contour>
	</outline>
</glyph>
<glyph name="Sigma" format="2">
	<advance width="500"/>
	<unicode hex="03A3"/>
	<outline>
		<contour>
			<point x="442" y="0" type="line"/>
			<point x="443" y="69" type="line"/>
			<point x="443" y="146" type="line"/>
			<point x="373" y="146" type="line"/>
			<point x="373" y="69" type="line"/>
			<point x="155" y="70" type="line"/>
			<point x="272" y="324" type="line"/>
			<point x="272" y="386" type="line"/>
			<point x="155" y="631" type="line"/>
			<point x="373" y="631" type="line"/>
			<point x="373" y="565" type="line"/>
			<point x="443" y="565" type="line"/>
			<point x="443" y="631" type="line"/>
			<point x="442" y="700" type="line"/>
			<point x="68" y="701" type="line"/>
			<point x="68" y="631" type="line"/>
			<point x="199" y="354" type="line"/>
			<point x="67" y="70" type="line"/>
			<point x="66" y="0" type="line"/>
		</contour>
	</outline>
</glyph>
<glyph name="Upsilon" format="2">
	<advance width="500"/>
	<unicode hex="03A5"/>
	<outline>
		<contour>
			<point x="188" y="0" type="line"/>
			<point x="312" y="0" type="line"/>
			<point x="312" y="70" type="line"/>
			<point x="284.734" y="70" type="line"/>
			<point x="287" y="286" type="line"/>
			<point x="426.594" y="630" type="line"/>
			<point x="469" y="630" type="line"/>
			<point x="470" y="700" type="line"/>
			<point x="323" y="700" type="line"/>
			<point x="324" y="630" type="line"/>
			<point x="349.646" y="630" type="line"/>
			<point x="250" y="384" type="line"/>
			<point x="150.354" y="630" type="line"/>
			<point x="176" y="630" type="line"/>
			<point x="177" y="700" type="line"/>
			<point x="30" y="700" type="line"/>
			<point x="31" y="630" type="line"/>
			<point x="73.406" y="630" type="line"/>
			<point x="213" y="286" type="line"/>
			<point x="213" y="70" type="line"/>
			<point x="188" y="70" type="line"/>
		</contour>
	</outline>
</glyph>
<glyph name="Phi" format="2">
	<advance width="500"/>
	<unicode hex="03A6"/>
	<outline>
		<contour>
			<point x="395" y="700" type="line"/>
			<point x="105" y="701" type="line"/>
			<point x="105" y="632" type="line"/>
			<point x="215" y="631.64" type="line"/>
			<point x="215" y="570.20498" type="line"/>
			<point x="112.20389" y="559.08062"/>
			<point x="52" y="495.21861"/>
			<point x="52" y="350" type="curve" smooth="yes"/>
			<point x="52" y="216.10249"/>
			<point x="109.29538" y="142.77438"/>
			<point x="215" y="130.01568" type="curve"/>
			<point x="215" y="69" type="line"/>
			<point x="105" y="69" type="line"/>
			<point x="105" y="0" type="line"/>
			<point x="395" y="-1" type="line"/>
			<point x="395" y="69" type="line"/>
			<point x="285" y="69" type="line"/>
			<point x="285" y="130.01481" type="line"/>
			<point x="390.70462" y="142.7653"/>
			<point x="448" y="216.0072"/>
			<point x="448" y="349" type="curve" smooth="yes"/>
			<point x="448" y="495.12059"/>
			<point x="387.79611" y="559.07101"/>
			<point x="285" y="570.20404" type="curve"/>
			<point x="285" y="631.36" type="line"/>
			<point x="395" y="631" type="line"/>
		</contour>
		<contour>
			<point x="122" y="350" type="curve" smooth="yes"/>
			<point x="122" y="444.90114"/>
			<point x="162.179" y="488.72727"/>
			<point x="215" y="501.14769" type="curve"/>
			<point x="215" y="197.92294" type="line"/>
			<point x="161.67502" y="210.67879"/>
			<point x="122" y="255.71352"/>
		</contour>
		<contour>
			<point x="285" y="197.99197" type="curve"/>
			<point x="285" y="501.22545" type="line"/>
			<point x="338.32498" y="488.8933"/>
			<point x="378" y="444.94062"/>
			<point x="378" y="349" type="curve" smooth="yes"/>
			<point x="378" y="256.36767"/>
			<point x="338.32498" y="210.93493"/>
		</contour>
	</outline>
</glyph>
<glyph name="Psi" format="2">
	<advance width="500"/>
	<unicode hex="03A8"/>
	<outline>
		<contour>
			<point x="285" y="637" type="line"/>
			<point x="215" y="637" type="line"/>
			<point x="215" y="69" type="line"/>
			<point x="105" y="69" type="line"/>
			<point x="105" y="0" type="line"/>
			<point x="395" y="-1" type="line"/>
			<point x="395" y="69" type="line"/>
			<point x="285" y="69" type="line"/>
		</contour>
		<contour>
			<point x="448" y="631" type="curve"/>
			<point x="378" y="631" type="line"/>
			<point x="378" y="413"/>
			<point x="361" y="262"/>
			<point x="250" y="262" type="curve" smooth="yes"/>
			<point x="129" y="262"/>
			<point x="122" y="412"/>
			<point x="122" y="632" type="curve"/>
			<point x="52" y="632" type="line"/>
			<point x="52" y="400"/>
			<point x="64" y="182"/>
			<point x="250" y="182" type="curve" smooth="yes"/>
			<point x="428" y="182"/>
			<point x="448" y="400"/>
		</contour>
		<contour>
			<point x="190" y="700" type="line"/>
			<point x="190" y="630" type="line"/>
			<point x="310" y="630" type="line"/>
			<point x="310" y="700" type="line"/>
		</contour>
		<contour>
			<point x="350" y="700" type="line"/>
			<point x="350" y="630" type="line"/>
			<point x="470" y="630" type="line"/>
			<point x="470" y="700" type="line"/>
		</contour>
		<contour>
			<point x="30" y="700" type="line"/>
			<point x="30" y="630" type="line"/>
			<point x="150" y="630" type="line"/>
			<point x="150" y="700" type="line"/>
		</contour>
	</outline>
</glyph>
<glyph name="Omega" format="2">
	<advance width="500"/>
	<unicode hex="03A9"/>
	<outline>
		<contour>
			<point x="290" y="116" type="curve"/>
			<point x="290" y="-5" type="line"/>
			<point x="470" y="-5" type="line"/>
			<point x="469" y="65" type="line"/>
			<point x="359" y="65" type="line"/>
			<point x="412" y="85"/>
			<point x="447" y="175"/>
			<point x="447" y="390" type="curve" smooth="yes"/>
			<point x="447" y="583"/>
			<point x="401" y="709"/>
			<point x="245" y="709" type="curve" smooth="yes"/>
			<point x="89" y="709"/>
			<point x="43" y="583"/>
			<point x="43" y="390" type="curve" smooth="yes"/>
			<point x="43" y="174"/>
			<point x="105" y="85"/>
			<point x="151" y="65" type="curve"/>
			<point x="34" y="65" type="line"/>
			<point x="34" y="-5" type="line"/>
			<point x="209" y="-5" type="line"/>
			<point x="209" y="116" type="line"/>
			<point x="144" y="145"/>
			<point x="113" y="208"/>
			<point x="113" y="390" type="curve" smooth="yes"/>
			<point x="113" y="576"/>
			<point x="164" y="639"/>
			<point x="245" y="639" type="curve" smooth="yes"/>
			<point x="323" y="639"/>
			<point x="378" y="576"/>
			<point x="378" y="390" type="curve" smooth="yes"/>
			<point x="378" y="207"/>
			<point x="359" y="142"/>
		</contour>
	</outline>
</glyph>
<glyph name="alpha" format="2">
	<advance width="500"/>
	<unicode hex="03B1"/>
	<outline>
		<contour>
			<point x="451" y="502" type="line"/>
			<point x="412" y="493"/>
			<point x="374" y="458"/>
			<point x="356" y="403" type="curve"/>
			<point x="328" y="465"/>
			<point x="273" y="498"/>
			<point x="220" y="498" type="curve" smooth="yes"/>
			<point x="92" y="498"/>
			<point x="42" y="416"/>
			<point x="42" y="250" type="curve" smooth="yes"/>
			<point x="42" y="98"/>
			<point x="92" y="3"/>
			<point x="220" y="3" type="curve" smooth="yes"/>
			<point x="273" y="3"/>
			<point x="339" y="44"/>
			<point x="356" y="107" type="curve"/>
			<point x="366" y="62"/>
			<point x="393" y="11"/>
			<point x="442" y="-1" type="curve"/>
			<point x="463" y="54" type="line"/>
			<point x="374" y="102"/>
			<point x="378" y="409"/>
			<point x="463" y="442" type="curve"/>
		</contour>
		<contour>
			<point x="108" y="250" type="curve" smooth="yes"/>
			<point x="108" y="368"/>
			<point x="142" y="432"/>
			<point x="212" y="432" type="curve" smooth="yes"/>
			<point x="273" y="432"/>
			<point x="338" y="347"/>
			<point x="338" y="250" type="curve" smooth="yes"/>
			<point x="338" y="158"/>
			<point x="276" y="67"/>
			<point x="212" y="67" type="curve" smooth="yes"/>
			<point x="142" y="67"/>
			<point x="108" y="134"/>
		</contour>
	</outline>
</glyph>
<glyph name="beta" format="2">
	<advance width="500"/>
	<unicode hex="03B2"/>
	<outline>
		<contour>
			<point x="83" y="-180" type="line"/>
			<point x="153" y="-180" type="line"/>
			<point x="153" y="0" type="line"/>
			<point x="215" y="0" type="line" smooth="yes"/>
			<point x="333" y="0"/>
			<point x="451" y="57"/>
			<point x="451" y="176" type="curve" smooth="yes"/>
			<point x="451" y="258"/>
			<point x="414" y="338"/>
			<point x="332" y="358" type="curve"/>
			<point x="402" y="379"/>
			<point x="423" y="438"/>
			<point x="423" y="519" type="curve" smooth="yes"/>
			<point x="423" y="623"/>
			<point x="356" y="697"/>
			<point x="249" y="697" type="curve" smooth="yes"/>
			<point x="140" y="697"/>
			<point x="83" y="597"/>
			<point x="83" y="479" type="curve" smooth="yes"/>
		</contour>
		<contour>
			<point x="153" y="65" type="line"/>
			<point x="153" y="479" type="line" smooth="yes"/>
			<point x="153" y="571"/>
			<point x="169" y="630"/>
			<point x="249" y="630" type="curve" smooth="yes"/>
			<point x="317" y="630"/>
			<point x="362" y="593"/>
			<point x="362" y="514" type="curve" smooth="yes"/>
			<point x="362" y="429"/>
			<point x="305" y="388"/>
			<point x="225" y="388" type="curve" smooth="yes"/>
			<point x="207" y="388" type="line"/>
			<point x="207" y="323" type="line"/>
			<point x="230" y="323" type="line" smooth="yes"/>
			<point x="326" y="323"/>
			<point x="389" y="272"/>
			<point x="389" y="170" type="curve" smooth="yes"/>
			<point x="389" y="94"/>
			<point x="297" y="65"/>
			<point x="215" y="65" type="curve" smooth="yes"/>
		</contour>
	</outline>
</glyph>
<glyph name="gamma" format="2">
	<advance width="500"/>
	<unicode hex="03B3"/>
	<outline>
		<contour>
			<point x="287" y="-202" type="line"/>
			<point x="286" y="-132" type="line"/>
			<point x="264" y="-132" type="line"/>
			<point x="280" y="37" type="line"/>
			<point x="324" y="101"/>
			<point x="363" y="159"/>
			<point x="385" y="229" type="curve" smooth="yes"/>
			<point x="412" y="316"/>
			<point x="421" y="410"/>
			<point x="427" y="500" type="curve"/>
			<point x="359" y="500" type="line"/>
			<point x="353" y="418"/>
			<point x="348" y="333"/>
			<point x="323" y="254" type="curve" smooth="yes"/>
			<point x="310" y="211"/>
			<point x="286" y="172"/>
			<point x="261" y="135" type="curve"/>
			<point x="230" y="262"/>
			<point x="198" y="361"/>
			<point x="120" y="501" type="curve"/>
			<point x="36" y="501" type="line"/>
			<point x="38" y="431" type="line"/>
			<point x="79" y="431" type="line"/>
			<point x="140" y="316"/>
			<point x="211" y="112"/>
			<point x="206" y="37" type="curve" smooth="yes"/>
			<point x="194" y="-132" type="line"/>
			<point x="172" y="-132" type="line"/>
			<point x="172" y="-202" type="line"/>
		</contour>
	</outline>
</glyph>
<glyph name="delta" format="2">
	<advance width="500"/>
	<unicode hex="03B4"/>
	<outline>
		<contour>
			<point x="84" y="634" type="line"/>
			<point x="150" y="601"/>
			<point x="233" y="529"/>
			<point x="289" y="473" type="curve"/>
			<point x="65" y="526"/>
			<point x="47" y="290"/>
			<point x="56" y="224" type="curve" smooth="yes"/>
			<point x="71" y="110"/>
			<point x="141" y="0"/>
			<point x="262" y="0" type="curve" smooth="yes"/>
			<point x="386" y="0"/>
			<point x="449" y="125"/>
			<point x="442" y="239" type="curve" smooth="yes"/>
			<point x="428" y="462"/>
			<point x="295" y="577"/>
			<point x="183" y="647" type="curve"/>
			<point x="356" y="645" type="line"/>
			<point x="361" y="592" type="line"/>
			<point x="422" y="592" type="line"/>
			<point x="415" y="706" type="line"/>
			<point x="107" y="706" type="line"/>
		</contour>
		<contour>
			<point x="121" y="224" type="curve" smooth="yes"/>
			<point x="112" y="316"/>
			<point x="135" y="418"/>
			<point x="250" y="415" type="curve" smooth="yes"/>
			<point x="317" y="413"/>
			<point x="371" y="331"/>
			<point x="377" y="239" type="curve" smooth="yes"/>
			<point x="384" y="132"/>
			<point x="322" y="64"/>
			<point x="262" y="64" type="curve" smooth="yes"/>
			<point x="200" y="64"/>
			<point x="132" y="117"/>
		</contour>
	</outline>
</glyph>
<glyph name="epsilon" format="2">
	<advance width="500"/>
	<unicode hex="03B5"/>
	<outline>
		<contour>
			<point x="308" y="228" type="curve"/>
			<point x="308" y="283" type="line"/>
			<point x="228" y="283"/>
			<point x="139" y="303"/>
			<point x="139" y="368" type="curve" smooth="yes"/>
			<point x="139" y="412"/>
			<point x="183" y="445"/>
			<point x="242" y="445" type="curve" smooth="yes"/>
			<point x="299" y="445"/>
			<point x="326" y="407"/>
			<point x="340" y="373" type="curve"/>
			<point x="406" y="373" type="line"/>
			<point x="406" y="445" type="line"/>
			<point x="372" y="445" type="line"/>
			<point x="362" y="471"/>
			<point x="306" y="506"/>
			<point x="242" y="506" type="curve" smooth="yes"/>
			<point x="129" y="506"/>
			<point x="69" y="440"/>
			<point x="69" y="369" type="curve" smooth="yes"/>
			<point x="69" y="311"/>
			<point x="96" y="276"/>
			<point x="148" y="256" type="curve"/>
			<point x="98" y="232"/>
			<point x="71" y="190"/>
			<point x="71" y="131" type="curve" smooth="yes"/>
			<point x="71" y="59"/>
			<point x="114" y="-4"/>
			<point x="241" y="-4" type="curve" smooth="yes"/>
			<point x="345" y="-4"/>
			<point x="395" y="43"/>
			<point x="404" y="116" type="curve"/>
			<point x="338" y="116" type="line"/>
			<point x="331" y="69"/>
			<point x="299" y="55"/>
			<point x="241" y="55" type="curve" smooth="yes"/>
			<point x="172" y="55"/>
			<point x="139" y="83"/>
			<point x="139" y="130" type="curve" smooth="yes"/>
			<point x="139" y="207"/>
			<point x="229" y="228"/>
		</contour>
	</outline>
</glyph>
<glyph name="zeta" format="2">
	<advance width="500"/>
	<unicode hex="03B6"/>
	<outline>
		<contour>
			<point x="133" y="284" type="curve" smooth="yes"/>
			<point x="133" y="392"/>
			<point x="261" y="537"/>
			<point x="409" y="615" type="curve"/>
			<point x="390" y="706" type="line"/>
			<point x="80" y="706" type="line"/>
			<point x="73" y="583" type="line"/>
			<point x="137" y="583" type="line"/>
			<point x="142" y="636" type="line"/>
			<point x="314" y="638" type="line"/>
			<point x="207" y="559"/>
			<point x="65" y="430"/>
			<point x="63" y="284" type="curve" smooth="yes"/>
			<point x="62" y="188"/>
			<point x="82" y="52"/>
			<point x="261" y="52" type="curve" smooth="yes"/>
			<point x="375" y="52"/>
			<point x="384" y="21"/>
			<point x="374" y="-8" type="curve" smooth="yes"/>
			<point x="356" y="-60"/>
			<point x="212" y="-75"/>
			<point x="119" y="-72" type="curve"/>
			<point x="114" y="-135" type="line"/>
			<point x="215" y="-141"/>
			<point x="416" y="-135"/>
			<point x="446" y="-13" type="curve" smooth="yes"/>
			<point x="462" y="52"/>
			<point x="410" y="122"/>
			<point x="261" y="122" type="curve" smooth="yes"/>
			<point x="154" y="122"/>
			<point x="133" y="188"/>
		</contour>
	</outline>
</glyph>
<glyph name="eta" format="2">
	<advance width="500"/>
	<unicode hex="03B7"/>
	<outline>
		<contour>
			<point x="173" y="-1" type="line"/>
			<point x="175" y="69" type="line"/>
			<point x="175" y="331" type="line" smooth="yes"/>
			<point x="175" y="392"/>
			<point x="210" y="448"/>
			<point x="270" y="448" type="curve" smooth="yes"/>
			<point x="316" y="448"/>
			<point x="355" y="392"/>
			<point x="355" y="331" type="curve" smooth="yes"/>
			<point x="355" y="-4" type="line"/>
			<point x="425" y="-4" type="line"/>
			<point x="425" y="331" type="line" smooth="yes"/>
			<point x="425" y="430"/>
			<point x="359" y="510"/>
			<point x="270" y="510" type="curve" smooth="yes"/>
			<point x="213" y="510"/>
			<point x="175" y="486"/>
			<point x="141" y="447" type="curve"/>
			<point x="125" y="471"/>
			<point x="110" y="491"/>
			<point x="97" y="506" type="curve"/>
			<point x="35" y="455" type="line"/>
			<point x="49" y="440"/>
			<point x="64" y="419"/>
			<point x="75" y="398" type="curve"/>
			<point x="91" y="409" type="line"/>
			<point x="105" y="382"/>
			<point x="106" y="359"/>
			<point x="106" y="326" type="curve" smooth="yes"/>
			<point x="104" y="69" type="line"/>
			<point x="93" y="69" type="line"/>
			<point x="93" y="-1" type="line"/>
		</contour>
		<contour>
			<point x="425" y="-4" type="curve"/>
			<point x="355" y="-4" type="line"/>
			<point x="355" y="-145"/>
			<point x="392" y="-197"/>
			<point x="474" y="-197" type="curve"/>
			<point x="474" y="-127" type="line"/>
			<point x="434" y="-127"/>
			<point x="425" y="-89"/>
		</contour>
	</outline>
</glyph>
<glyph name="theta" format="2">
	<advance width="500"/>
	<unicode hex="03B8"/>
	<outline>
		<contour>
			<point x="245" y="704" type="curve" smooth="yes"/>
			<point x="89" y="704"/>
			<point x="43" y="575"/>
			<point x="43" y="350" type="curve" smooth="yes"/>
			<point x="43" y="150"/>
			<point x="78" y="-4"/>
			<point x="245" y="-4" type="curve" smooth="yes"/>
			<point x="412" y="-4"/>
			<point x="447" y="150"/>
			<point x="447" y="350" type="curve" smooth="yes"/>
			<point x="447" y="575"/>
			<point x="401" y="704"/>
		</contour>
		<contour>
			<point x="113.44285" y="384" type="line"/>
			<point x="118.59551" y="574.93558"/>
			<point x="168.37402" y="634"/>
			<point x="245" y="634" type="curve" smooth="yes"/>
			<point x="318.78798" y="634"/>
			<point x="371.9929" y="574.93558"/>
			<point x="377.52389" y="384" type="curve"/>
		</contour>
		<contour>
			<point x="113.55241" y="313" type="curve"/>
			<point x="377.4371" y="313" type="line"/>
			<point x="371.61925" y="128.9209"/>
			<point x="321.11261" y="67.93966"/>
			<point x="245" y="67" type="curve" smooth="yes"/>
			<point x="168.88739" y="67.93966"/>
			<point x="119.26371" y="128.9209"/>
		</contour>
	</outline>
</glyph>
<glyph name="iota" format="2">
	<advance width="500"/>
	<unicode hex="03B9"/>
	<outline>
		<contour>
			<point x="405" y="7" type="curve"/>
			<point x="377" y="63" type="line"/>
			<point x="367" y="57"/>
			<point x="356" y="53"/>
			<point x="344" y="53" type="curve" smooth="yes"/>
			<point x="277" y="53"/>
			<point x="246" y="122"/>
			<point x="247" y="242" type="curve" smooth="yes"/>
			<point x="249" y="501" type="line"/>
			<point x="134" y="501" type="line"/>
			<point x="134" y="421" type="line"/>
			<point x="179" y="421" type="line"/>
			<point x="178" y="243" type="line" smooth="yes"/>
			<point x="177" y="77"/>
			<point x="223" y="-9"/>
			<point x="342" y="-10" type="curve" smooth="yes"/>
			<point x="364" y="-10"/>
			<point x="385" y="-5"/>
		</contour>
	</outline>
</glyph>
<glyph name="kappa" format="2">
	<advance width="500"/>
	<unicode hex="03BA"/>
	<outline>
		<contour>
			<point x="163" y="-1" type="line"/>
			<point x="163" y="169" type="line"/>
			<point x="210" y="229" type="line"/>
			<point x="321" y="36" type="line" smooth="yes"/>
			<point x="343" y="-2"/>
			<point x="383" y="0"/>
			<point x="426" y="0" type="curve"/>
			<point x="426" y="69" type="line"/>
			<point x="381" y="69"/>
			<point x="372" y="70"/>
			<point x="352" y="106" type="curve" smooth="yes"/>
			<point x="255" y="282" type="line"/>
			<point x="350" y="394" type="line" smooth="yes"/>
			<point x="377" y="425"/>
			<point x="379" y="431"/>
			<point x="424" y="431" type="curve"/>
			<point x="424" y="500" type="line"/>
			<point x="381" y="500"/>
			<point x="348" y="497"/>
			<point x="319" y="464" type="curve" smooth="yes"/>
			<point x="163" y="288" type="line"/>
			<point x="161" y="500" type="line"/>
			<point x="77" y="500" type="line"/>
			<point x="80" y="420" type="line"/>
			<point x="91" y="420" type="line"/>
			<point x="93" y="79" type="line"/>
			<point x="80" y="79" type="line"/>
			<point x="77" y="-1" type="line"/>
		</contour>
	</outline>
</glyph>
<glyph name="lambda" format="2">
	<advance width="600"/>
	<unicode hex="03BB"/>
	<outline>
		<contour>
			<point x="265" y="700" type="line"/>
			<point x="264" y="700" type="line"/>
			<point x="264" y="701" type="line"/>
			<point x="168" y="701" type="line"/>
			<point x="172" y="631" type="line"/>
			<point x="215" y="631" type="line"/>
			<point x="285" y="411" type="line"/>
			<point x="107" y="-5" type="line"/>
			<point x="185" y="-4" type="line"/>
			<point x="319" y="306" type="line"/>
			<point x="417" y="0" type="line"/>
			<point x="509" y="0" type="line"/>
			<point x="506" y="70" type="line"/>
			<point x="467" y="70" type="line"/>
		</contour>
	</outline>
</glyph>
<glyph name="mu" format="2">
	<advance width="500"/>
	<unicode hex="03BC"/>
	<outline>
		<contour>
			<point x="148" y="252" type="curve" smooth="yes"/>
			<point x="150" y="500" type="line"/>
			<point x="68" y="500" type="line"/>
			<point x="70" y="420" type="line"/>
			<point x="80" y="420" type="line"/>
			<point x="79" y="253" type="line" smooth="yes"/>
			<point x="78" y="87"/>
			<point x="124" y="-11"/>
			<point x="243" y="0" type="curve" smooth="yes"/>
			<point x="289" y="4"/>
			<point x="331" y="24"/>
			<point x="360" y="77" type="curve"/>
			<point x="373" y="48"/>
			<point x="392" y="25"/>
			<point x="424" y="0" type="curve"/>
			<point x="469" y="53" type="line"/>
			<point x="423" y="93"/>
			<point x="410" y="122"/>
			<point x="410" y="173" type="curve" smooth="yes"/>
			<point x="409" y="420" type="line"/>
			<point x="419" y="420" type="line"/>
			<point x="422" y="500" type="line"/>
			<point x="340" y="500" type="line"/>
			<point x="340" y="420" type="line"/>
			<point x="341" y="258" type="line" smooth="yes"/>
			<point x="342" y="146"/>
			<point x="302" y="63"/>
			<point x="245" y="63" type="curve" smooth="yes"/>
			<point x="178" y="63"/>
			<point x="147" y="132"/>
		</contour>
		<contour>
			<point x="148" y="445" type="line"/>
			<point x="80" y="443" type="line"/>
			<point x="80" y="22" type="line" smooth="yes"/>
			<point x="80" y="-97"/>
			<point x="78" y="-148"/>
			<point x="28" y="-121" type="curve"/>
			<point x="2" y="-186" type="line"/>
			<point x="118" y="-236"/>
			<point x="151" y="-150"/>
			<point x="150" y="23" type="curve" smooth="yes"/>
		</contour>
	</outline>
</glyph>
<glyph name="nu" format="2">
	<advance width="500"/>
	<unicode hex="03BD"/>
	<outline>
		<contour>
			<point x="290" y="0" type="line"/>
			<point x="421" y="430" type="line"/>
			<point x="456" y="430" type="line"/>
			<point x="459" y="500" type="line"/>
			<point x="367" y="500" type="line"/>
			<point x="250" y="85" type="line"/>
			<point x="132" y="497" type="line"/>
			<point x="132" y="500" type="line"/>
			<point x="41" y="500" type="line"/>
			<point x="43" y="430" type="line"/>
			<point x="77" y="430" type="line"/>
			<point x="210" y="0" type="line"/>
		</contour>
	</outline>
</glyph>
<glyph name="xi" format="2">
	<advance width="500"/>
	<unicode hex="03BE"/>
	<outline>
		<contour>
			<point x="124" y="522" type="curve" smooth="yes"/>
			<point x="124" y="583"/>
			<point x="279" y="631"/>
			<point x="395" y="651" type="curve"/>
			<point x="384" y="721" type="line"/>
			<point x="57" y="721" type="line"/>
			<point x="56" y="651" type="line"/>
			<point x="185" y="654" type="line"/>
			<point x="106" y="628"/>
			<point x="54" y="594"/>
			<point x="54" y="520" type="curve" smooth="yes"/>
			<point x="54" y="455"/>
			<point x="104" y="402"/>
			<point x="175" y="391" type="curve"/>
			<point x="103" y="378"/>
			<point x="58" y="317"/>
			<point x="58" y="247" type="curve" smooth="yes"/>
			<point x="58" y="181"/>
			<point x="117" y="95"/>
			<point x="254" y="95" type="curve" smooth="yes"/>
			<point x="328" y="95"/>
			<point x="361" y="64"/>
			<point x="361" y="9" type="curve" smooth="yes"/>
			<point x="361" y="-51"/>
			<point x="199" y="-66"/>
			<point x="106" y="-61" type="curve"/>
			<point x="101" y="-130" type="line"/>
			<point x="202" y="-136"/>
			<point x="432" y="-127"/>
			<point x="433" y="9" type="curve" smooth="yes"/>
			<point x="434" y="120"/>
			<point x="350" y="165"/>
			<point x="254" y="165" type="curve" smooth="yes"/>
			<point x="172" y="165"/>
			<point x="128" y="206"/>
			<point x="128" y="245" type="curve" smooth="yes"/>
			<point x="128" y="303"/>
			<point x="166" y="349"/>
			<point x="321" y="362" type="curve"/>
			<point x="321" y="426" type="line"/>
			<point x="191" y="429"/>
			<point x="124" y="476"/>
		</contour>
	</outline>
</glyph>
<glyph name="pi" format="2">
	<advance width="500"/>
	<unicode hex="03C0"/>
	<outline>
		<contour>
			<point x="100" y="-2" type="line"/>
			<point x="170" y="-2" type="line"/>
			<point x="170" y="431" type="line"/>
			<point x="321" y="431" type="line"/>
			<point x="321" y="84" type="line" smooth="yes"/>
			<point x="321" y="34"/>
			<point x="361" y="-7"/>
			<point x="447" y="-7" type="curve"/>
			<point x="447" y="63" type="line"/>
			<point x="411" y="63"/>
			<point x="391" y="70"/>
			<point x="391" y="108" type="curve" smooth="yes"/>
			<point x="391" y="430" type="line"/>
			<point x="443" y="430" type="line"/>
			<point x="443" y="500" type="line"/>
			<point x="57" y="500" type="line"/>
			<point x="57" y="430" type="line"/>
			<point x="100" y="430" type="line"/>
		</contour>
	</outline>
</glyph>
<glyph name="rho" format="2">
	<advance width="500"/>
	<unicode hex="03C1"/>
	<outline>
		<contour>
			<point x="274" y="55" type="curve" smooth="yes"/>
			<point x="190" y="55"/>
			<point x="157" y="122"/>
			<point x="157" y="242" type="curve" smooth="yes"/>
			<point x="157" y="366"/>
			<point x="191" y="429"/>
			<point x="274" y="429" type="curve" smooth="yes"/>
			<point x="358" y="429"/>
			<point x="391" y="366"/>
			<point x="391" y="242" type="curve" smooth="yes"/>
			<point x="391" y="120"/>
			<point x="358" y="55"/>
		</contour>
		<contour>
			<point x="71" y="-203" type="line"/>
			<point x="155" y="-203" type="line"/>
			<point x="157" y="-123" type="line"/>
			<point x="157" y="35" type="line"/>
			<point x="183" y="6"/>
			<point x="220" y="-8"/>
			<point x="271" y="-8" type="curve" smooth="yes"/>
			<point x="413" y="-8"/>
			<point x="461" y="74"/>
			<point x="461" y="243" type="curve" smooth="yes"/>
			<point x="461" y="418"/>
			<point x="413" y="494"/>
			<point x="271" y="496" type="curve" smooth="yes"/>
			<point x="142" y="498"/>
			<point x="94" y="409"/>
			<point x="92" y="243" type="curve" smooth="yes"/>
			<point x="87" y="-123" type="line"/>
			<point x="74" y="-123" type="line"/>
		</contour>
	</outline>
</glyph>
<glyph name="sigmafinal" format="2">
	<advance width="500"/>
	<unicode hex="03C2"/>
	<outline>
		<contour>
			<point x="248" y="-8" type="curve" smooth="yes"/>
			<point x="331" y="-10"/>
			<point x="357" y="-43"/>
			<point x="360" y="-141" type="curve"/>
			<point x="430" y="-141" type="line"/>
			<point x="430" y="-7"/>
			<point x="376" y="59"/>
			<point x="247" y="59" type="curve" smooth="yes"/>
			<point x="166" y="59"/>
			<point x="131" y="124"/>
			<point x="131" y="244" type="curve" smooth="yes"/>
			<point x="131" y="371"/>
			<point x="171" y="432"/>
			<point x="251" y="432" type="curve" smooth="yes"/>
			<point x="309" y="432"/>
			<point x="344" y="397"/>
			<point x="358" y="334" type="curve"/>
			<point x="431" y="334" type="line"/>
			<point x="431" y="457" type="line"/>
			<point x="376.782" y="457" type="line"/>
			<point x="346.998" y="485.542"/>
			<point x="305.02" y="499"/>
			<point x="248" y="499" type="curve" smooth="yes"/>
			<point x="114" y="499"/>
			<point x="60" y="423"/>
			<point x="60" y="245" type="curve" smooth="yes"/>
			<point x="60" y="79"/>
			<point x="112" y="-5"/>
		</contour>
	</outline>
</glyph>
<glyph name="sigma" format="2">
	<advance width="500"/>
	<unicode hex="03C3"/>
	<outline>
		<contour>
			<point x="250" y="57" type="curve" smooth="yes"/>
			<point x="180" y="57"/>
			<point x="127" y="134"/>
			<point x="127" y="250" type="curve" smooth="yes"/>
			<point x="127" y="368"/>
			<point x="181" y="442"/>
			<point x="250" y="442" type="curve" smooth="yes"/>
			<point x="320" y="442"/>
			<point x="373" y="368"/>
			<point x="373" y="249" type="curve" smooth="yes"/>
			<point x="373" y="134"/>
			<point x="320" y="57"/>
		</contour>
		<contour>
			<point x="250" y="-3" type="curve" smooth="yes"/>
			<point x="378" y="-3"/>
			<point x="443" y="98"/>
			<point x="443" y="249" type="curve" smooth="yes"/>
			<point x="443" y="416"/>
			<point x="374" y="504"/>
			<point x="250" y="504" type="curve" smooth="yes"/>
			<point x="126" y="504"/>
			<point x="57" y="416"/>
			<point x="57" y="250" type="curve" smooth="yes"/>
			<point x="57" y="98"/>
			<point x="122" y="-3"/>
		</contour>
		<contour>
			<point x="250" y="504" type="line"/>
			<point x="250" y="442" type="line"/>
			<point x="403" y="442" type="line"/>
			<point x="461" y="445" type="line"/>
			<point x="461" y="518" type="line"/>
			<point x="403" y="515" type="line"/>
			<point x="403" y="504" type="line"/>
		</contour>
	</outline>
</glyph>
<glyph name="tau" format="2">
	<advance width="500"/>
	<unicode hex="03C4"/>
	<outline>
		<contour>
			<point x="277" y="182" type="curve" smooth="yes"/>
			<point x="277" y="428" type="line"/>
			<point x="423" y="429" type="line"/>
			<point x="423" y="498" type="line"/>
			<point x="68" y="498" type="line"/>
			<point x="68" y="429" type="line"/>
			<point x="204" y="428" type="line"/>
			<point x="204" y="184" type="line" smooth="yes"/>
			<point x="204" y="56"/>
			<point x="221" y="-2"/>
			<point x="313" y="-2" type="curve" smooth="yes"/>
			<point x="376" y="-2"/>
			<point x="417" y="42"/>
			<point x="465" y="133" type="curve"/>
			<point x="407" y="167" type="line"/>
			<point x="385" y="124"/>
			<point x="344" y="69"/>
			<point x="313" y="69" type="curve" smooth="yes"/>
			<point x="283" y="69"/>
			<point x="277" y="106"/>
		</contour>
	</outline>
</glyph>
<glyph name="upsilon" format="2">
	<advance width="500"/>
	<unicode hex="03C5"/>
	<outline>
		<contour>
			<point x="149" y="257" type="curve" smooth="yes"/>
			<point x="123" y="490" type="line"/>
			<point x="53" y="490" type="line"/>
			<point x="55" y="410" type="line"/>
			<point x="69" y="410" type="line"/>
			<point x="84" y="257" type="line" smooth="yes"/>
			<point x="97" y="128"/>
			<point x="116" y="-12"/>
			<point x="235" y="-10" type="curve" smooth="yes"/>
			<point x="339" y="-8"/>
			<point x="363" y="138"/>
			<point x="380" y="257" type="curve" smooth="yes"/>
			<point x="402" y="410" type="line"/>
			<point x="416" y="410" type="line"/>
			<point x="419" y="490" type="line"/>
			<point x="351" y="490" type="line"/>
			<point x="315" y="257" type="line" smooth="yes"/>
			<point x="298" y="145"/>
			<point x="292" y="60"/>
			<point x="235" y="60" type="curve" smooth="yes"/>
			<point x="168" y="60"/>
			<point x="162" y="145"/>
		</contour>
	</outline>
</glyph>
<glyph name="phi" format="2">
	<advance width="500"/>
	<unicode hex="03C6"/>
	<outline>
		<contour>
			<point x="315" y="568" type="line"/>
			<point x="185" y="568" type="line"/>
			<point x="185" y="500" type="line"/>
			<point x="215" y="500" type="line"/>
			<point x="215" y="439" type="line"/>
			<point x="112" y="427"/>
			<point x="52" y="364"/>
			<point x="52" y="218" type="curve" smooth="yes"/>
			<point x="52" y="84"/>
			<point x="109" y="11"/>
			<point x="215" y="-2" type="curve"/>
			<point x="215" y="-63" type="line"/>
			<point x="188" y="-63" type="line"/>
			<point x="188" y="-132" type="line"/>
			<point x="312" y="-132" type="line"/>
			<point x="312" y="-63" type="line"/>
			<point x="285" y="-63" type="line"/>
			<point x="285" y="-2" type="line"/>
			<point x="391" y="11"/>
			<point x="448" y="84"/>
			<point x="448" y="217" type="curve" smooth="yes"/>
			<point x="448" y="363"/>
			<point x="388" y="427"/>
			<point x="285" y="439" type="curve"/>
			<point x="285" y="500" type="line"/>
			<point x="315" y="500" type="line"/>
		</contour>
		<contour>
			<point x="122" y="218" type="curve" smooth="yes"/>
			<point x="122" y="313"/>
			<point x="162" y="357"/>
			<point x="215" y="369" type="curve"/>
			<point x="215" y="66" type="line"/>
			<point x="162" y="79"/>
			<point x="122" y="124"/>
		</contour>
		<contour>
			<point x="285" y="66" type="curve"/>
			<point x="285" y="370" type="line"/>
			<point x="338" y="357"/>
			<point x="378" y="313"/>
			<point x="378" y="217" type="curve" smooth="yes"/>
			<point x="378" y="125"/>
			<point x="338" y="79"/>
		</contour>
	</outline>
</glyph>
<glyph name="chi" format="2">
	<advance width="500"/>
	<unicode hex="03C7"/>
	<outline>
		<contour>
			<point x="351" y="-154" type="line"/>
			<point x="449" y="-146" type="line"/>
			<point x="446" y="-76" type="line"/>
			<point x="398" y="-80" type="line"/>
			<point x="148" y="509" type="line"/>
			<point x="51" y="501" type="line"/>
			<point x="53" y="431" type="line"/>
			<point x="100" y="435" type="line"/>
		</contour>
		<contour>
			<point x="446" y="504" type="line"/>
			<point x="368" y="504" type="line"/>
			<point x="54" y="-151" type="line"/>
			<point x="132" y="-151" type="line"/>
		</contour>
	</outline>
</glyph>
<glyph name="psi" format="2">
	<advance width="600"/>
	<unicode hex="03C8"/>
	<outline>
		<contour>
			<point x="240" y="504" type="line"/>
			<point x="240" y="434" type="line"/>
			<point x="265" y="434" type="line"/>
			<point x="265" y="-127" type="line"/>
			<point x="240" y="-127" type="line"/>
			<point x="240" y="-195" type="line"/>
			<point x="360" y="-195" type="line"/>
			<point x="360" y="-126" type="line"/>
			<point x="335" y="-127" type="line"/>
			<point x="335" y="434" type="line"/>
			<point x="360" y="434" type="line"/>
			<point x="360" y="504" type="line"/>
		</contour>
		<contour>
			<point x="428" y="504" type="line"/>
			<point x="428.98571" y="435" type="line" smooth="yes"/>
			<point x="432" y="217"/>
			<point x="411" y="66"/>
			<point x="300" y="66" type="curve" smooth="yes"/>
			<point x="179.36702" y="66"/>
			<point x="172" y="216"/>
			<point x="172" y="435" type="curve" smooth="yes"/>
			<point x="172" y="504" type="line"/>
			<point x="80" y="504" type="line"/>
			<point x="80" y="434" type="line"/>
			<point x="102.0003" y="434" type="line"/>
			<point x="102.07041" y="202.74871"/>
			<point x="114.53458" y="-14"/>
			<point x="300" y="-14" type="curve" smooth="yes"/>
			<point x="477.74312" y="-14"/>
			<point x="497.94195" y="203.37125"/>
			<point x="497.99987" y="434" type="curve"/>
			<point x="520" y="434" type="line"/>
			<point x="520" y="504" type="line"/>
		</contour>
	</outline>
</glyph>
<glyph name="omega" format="2">
	<advance width="500"/>
	<unicode hex="03C9"/>
	<outline>
		<contour>
			<point x="183" y="1" type="curve" smooth="yes"/>
			<point x="214.83332" y="1"/>
			<point x="240" y="56"/>
			<point x="250" y="113" type="curve"/>
			<point x="259" y="56"/>
			<point x="270.16668" y="1"/>
			<point x="302" y="1" type="curve" smooth="yes"/>
			<point x="423" y="0"/>
			<point x="430" y="229"/>
			<point x="427" y="419" type="curve"/>
			<point x="448" y="419" type="line"/>
			<point x="450" y="499" type="line"/>
			<point x="364" y="499" type="line"/>
			<point x="367" y="340"/>
			<point x="367" y="90"/>
			<point x="321" y="90" type="curve" smooth="yes"/>
			<point x="278" y="90"/>
			<point x="278" y="231"/>
			<point x="278" y="294" type="curve"/>
			<point x="221" y="294" type="line"/>
			<point x="221" y="231"/>
			<point x="221" y="90"/>
			<point x="178" y="90" type="curve" smooth="yes"/>
			<point x="132" y="90"/>
			<point x="132" y="340"/>
			<point x="135" y="499" type="curve"/>
			<point x="49" y="499" type="line"/>
			<point x="51" y="419" type="line"/>
			<point x="72" y="419" type="line"/>
			<point x="69" y="229"/>
			<point x="62" y="0"/>
		</contour>
	</outline>
</glyph>
<glyph name="leftArrow" format="2">
	<advance width="500"/>
	<unicode hex="2190"/>
	<outline>
		<contour>
			<point x="460" y="305" type="line"/>
			<point x="460" y="375" type="line"/>
			<point x="191.80328" y="375" type="line"/>
			<point x="300" y="435" type="line"/>
			<point x="261" y="503" type="line"/>
			<point x="40" y="375" type="line"/>
			<point x="40" y="305" type="line"/>
			<point x="261" y="177" type="line"/>
			<point x="300" y="245" type="line"/>
			<point x="192.68293" y="305" type="line"/>
		</contour>
	</outline>
</glyph>
<glyph name="upArrow" format="2">
	<advance width="500"/>
	<unicode hex="2191"/>
	<outline>
		<contour>
			<point x="215" y="130" type="line"/>
			<point x="285" y="130" type="line"/>
			<point x="285" y="398.19672" type="line"/>
			<point x="345" y="290" type="line"/>
			<point x="413" y="329" type="line"/>
			<point x="285" y="550" type="line"/>
			<point x="215" y="550" type="line"/>
			<point x="87" y="329" type="line"/>
			<point x="155" y="290" type="line"/>
			<point x="215" y="397.31707" type="line"/>
		</contour>
	</outline>
</glyph>
<glyph name="rightArrow" format="2">
	<advance width="500"/>
	<unicode hex="2192"/>
	<outline>
		<contour>
			<point x="40" y="375" type="line"/>
			<point x="40" y="305" type="line"/>
			<point x="308.19672" y="305" type="line"/>
			<point x="200" y="245" type="line"/>
			<point x="239" y="177" type="line"/>
			<point x="460" y="305" type="line"/>
			<point x="460" y="375" type="line"/>
			<point x="239" y="503" type="line"/>
			<point x="200" y="435" type="line"/>
			<point x="307.31707" y="375" type="line"/>
		</contour>
	</outline>
</glyph>
<glyph name="downArrow" format="2">
	<advance width="500"/>
	<unicode hex="2193"/>
	<outline>
		<contour>
			<point x="285" y="550" type="line"/>
			<point x="215" y="550" type="line"/>
			<point x="215" y="281.80328" type="line"/>
			<point x="155" y="390" type="line"/>
			<point x="87" y="351" type="line"/>
			<point x="215" y="130" type="line"/>
			<point x="285" y="130" type="line"/>
			<point x="413" y="351" type="line"/>
			<point x="345" y="390" type="line"/>
			<point x="285" y="282.68293" type="line"/>
		</contour>
	</outline>
</glyph>
<glyph name="leftRightArrow" format="2">
	<advance width="500"/>
	<unicode hex="2194"/>
	<outline>
		<contour>
			<point x="40" y="375" type="line"/>
			<point x="40" y="305" type="line"/>
			<point x="188" y="181" type="line"/>
			<point x="230" y="238" type="line"/>
			<point x="151.57364" y="305" type="line"/>
			<point x="348.42636" y="305" type="line"/>
			<point x="270" y="238" type="line"/>
			<point x="312" y="181" type="line"/>
			<point x="460" y="305" type="line"/>
			<point x="460" y="375" type="line"/>
			<point x="312" y="499" type="line"/>
			<point x="269" y="442" type="line"/>
			<point x="347.42636" y="375" type="line"/>
			<point x="152.57364" y="375" type="line"/>
			<point x="231" y="442" type="line"/>
			<point x="188" y="499" type="line"/>
		</contour>
	</outline>
</glyph>
<glyph name="upDownArrow" format="2">
	<advance width="500"/>
	<unicode hex="2195"/>
	<outline>
		<contour>
			<point x="215" y="130" type="line"/>
			<point x="285" y="130" type="line"/>
			<point x="409" y="278" type="line"/>
			<point x="352" y="320" type="line"/>
			<point x="285" y="241.57364" type="line"/>
			<point x="285" y="438.42636" type="line"/>
			<point x="352" y="360" type="line"/>
			<point x="409" y="402" type="line"/>
			<point x="285" y="550" type="line"/>
			<point x="215" y="550" type="line"/>
			<point x="91" y="402" type="line"/>
			<point x="148" y="359" type="line"/>
			<point x="215" y="437.42636" type="line"/>
			<point x="215" y="242.57364" type="line"/>
			<point x="148" y="321" type="line"/>
			<point x="91" y="278" type="line"/>
		</contour>
	</outline>
</glyph>
<glyph name="northWestArrow" format="2">
	<advance width="500"/>
	<unicode hex="2196"/>
	<outline>
		<contour>
			<point x="374" y="167" type="line"/>
			<point x="423" y="216" type="line"/>
			<point x="232.69942" y="406.30058" type="line"/>
			<point x="353" y="372" type="line"/>
			<point x="373" y="447" type="line"/>
			<point x="126" y="513" type="line"/>
			<point x="77" y="464" type="line"/>
			<point x="143" y="217" type="line"/>
			<point x="218" y="237" type="line"/>
			<point x="184.58286" y="356.41714" type="line"/>
		</contour>
	</outline>
</glyph>
<glyph name="northEastArrow" format="2">
	<advance width="500"/>
	<unicode hex="2197"/>
	<outline>
		<contour>
			<point x="77" y="216" type="line"/>
			<point x="126" y="167" type="line"/>
			<point x="316.30058" y="357.30058" type="line"/>
			<point x="282" y="237" type="line"/>
			<point x="357" y="217" type="line"/>
			<point x="423" y="464" type="line"/>
			<point x="374" y="513" type="line"/>
			<point x="127" y="447" type="line"/>
			<point x="147" y="372" type="line"/>
			<point x="266.41714" y="405.41714" type="line"/>
		</contour>
	</outline>
</glyph>
<glyph name="southEastArrow" format="2">
	<advance width="500"/>
	<unicode hex="2198"/>
	<outline>
		<contour>
			<point x="126" y="513" type="line"/>
			<point x="77" y="464" type="line"/>
			<point x="267.30058" y="273.69942" type="line"/>
			<point x="147" y="308" type="line"/>
			<point x="127" y="233" type="line"/>
			<point x="374" y="167" type="line"/>
			<point x="423" y="216" type="line"/>
			<point x="357" y="463" type="line"/>
			<point x="282" y="443" type="line"/>
			<point x="315.41714" y="323.58286" type="line"/>
		</contour>
	</outline>
</glyph>
<glyph name="southWestArrow" format="2">
	<advance width="500"/>
	<unicode hex="2199"/>
	<outline>
		<contour>
			<point x="423" y="464" type="line"/>
			<point x="374" y="513" type="line"/>
			<point x="183.69942" y="322.69942" type="line"/>
			<point x="218" y="443" type="line"/>
			<point x="143" y="463" type="line"/>
			<point x="77" y="216" type="line"/>
			<point x="126" y="167" type="line"/>
			<point x="373" y="233" type="line"/>
			<point x="353" y="308" type="line"/>
			<point x="233.58286" y="274.58286" type="line"/>
		</contour>
	</outline>
</glyph>
<glyph name="lozenge" format="2">
	<advance width="500"/>
	<unicode hex="25CA"/>
	<outline>
		<contour>
			<point x="248" y="571" type="line"/>
			<point x="100" y="339" type="line"/>
			<point x="250" y="109" type="line"/>
			<point x="398" y="340" type="line"/>
		</contour>
		<contour>
			<point x="248" y="496" type="line"/>
			<point x="343" y="339" type="line"/>
			<point x="250" y="184" type="line"/>
			<point x="155" y="340" type="line"/>
		</contour>
	</outline>
</glyph>
<glyph name=".notdef" format="2">
	<advance width="500"/>
	<outline>
		<contour>
			<point x="427" y="0" type="line"/>
			<point x="427" y="700" type="line"/>
			<point x="73" y="700" type="line"/>
			<point x="73" y="0" type="line"/>
		</contour>
		<contour>
			<point x="102" y="429" type="line"/>
			<point x="295" y="671" type="line"/>
			<point x="384" y="671" type="line"/>
			<point x="102" y="317" type="line"/>
		</contour>
		<contour>
			<point x="102" y="578" type="line"/>
			<point x="177" y="671" type="line"/>
			<point x="265" y="671" type="line"/>
			<point x="102" y="466" type="line"/>
		</contour>
		<contour>
			<point x="102" y="671" type="line"/>
			<point x="146" y="671" type="line"/>
			<point x="102" y="615" type="line"/>
		</contour>
		<contour>
			<point x="102" y="280" type="line"/>
			<point x="398" y="650" type="line"/>
			<point x="398" y="539" type="line"/>
			<point x="102" y="169" type="line"/>
		</contour>
		<contour>
			<point x="102" y="131" type="line"/>
			<point x="398" y="502" type="line"/>
			<point x="398" y="390" type="line"/>
			<point x="109" y="29" type="line"/>
			<point x="102" y="29" type="line"/>
		</contour>
		<contour>
			<point x="398" y="353" type="line"/>
			<point x="398" y="242" type="line"/>
			<point x="228" y="29" type="line"/>
			<point x="139" y="29" type="line"/>
		</contour>
		<contour>
			<point x="398" y="205" type="line"/>
			<point x="398" y="92" type="line"/>
			<point x="347" y="29" type="line"/>
			<point x="257" y="29" type="line"/>
		</contour>
		<contour>
			<point x="376" y="29" type="line"/>
			<point x="398" y="55" type="line"/>
			<point x="398" y="29" type="line"/>
		</contour>
	</outline>
</glyph>
